<?xml version="1.0" encoding="iso-8859-1"?>
<!-- Generator: Adobe Illustrator 19.0.0, SVG Export Plug-In . SVG Version: 6.00 Build 0)  -->
<svg version="1.1" id="Layer_1" xmlns="http://www.w3.org/2000/svg" xmlns:xlink="http://www.w3.org/1999/xlink" x="0px" y="0px"
	 viewBox="0 0 512 512" style="enable-background:new 0 0 512 512;" xml:space="preserve">
<path style="fill:#D6E0E0;" d="M409.264,465.475V283.869c53.632-13.382,93.368-61.859,93.368-119.634
	c0-68.107-55.209-123.317-123.315-123.317c-11.998,0-23.577,1.744-34.543,4.94c-22.429-23.273-53.899-37.774-88.774-37.774
	c-34.874,0-66.344,14.501-88.775,37.774c-10.964-3.195-22.546-4.94-34.541-4.94c-68.107,0-123.317,55.21-123.317,123.317
	c0,57.775,39.738,106.252,93.368,119.634v181.605"/>
<polyline style="fill:#34B6D0;" points="409.264,465.475 409.264,403.313 102.735,403.313 102.735,465.475 "/>
<path style="fill:#CFDBDB;" d="M347.62,465.475H99.612c-10.616,0-19.221,8.605-19.221,19.221c0,10.615,8.605,19.22,19.221,19.22
	h312.775c10.615,0,19.221-8.605,19.221-19.22c0-10.616-8.606-19.221-19.221-19.221H373.49"/>
<g style="opacity:0.2;">
	<path style="fill:#020202;" d="M105.968,484.696c0-10.616,8.605-19.221,19.221-19.221H99.612c-10.616,0-19.221,8.605-19.221,19.221
		c0,10.615,8.605,19.22,19.221,19.22h25.577C114.573,503.916,105.968,495.311,105.968,484.696z"/>
</g>
<path style="fill:#020202;" d="M417.348,290.028c55.291-16.636,93.368-67.482,93.368-125.794c0-72.455-58.946-131.401-131.4-131.401
	c-10.829,0-21.617,1.342-32.135,3.994c-0.67-0.646-1.348-1.283-2.032-1.914c-0.14-0.13-0.28-0.262-0.421-0.392
	c-0.439-0.402-0.884-0.799-1.328-1.195c-0.431-0.386-0.861-0.772-1.297-1.15c-0.125-0.108-0.251-0.215-0.376-0.322
	c-20.38-17.637-45.282-28.399-72.018-31.146c-0.111-0.012-0.221-0.025-0.332-0.036c-0.864-0.086-1.731-0.162-2.599-0.232
	c-0.269-0.022-0.538-0.047-0.807-0.068c-0.723-0.054-1.449-0.096-2.174-0.138c-0.393-0.023-0.786-0.051-1.18-0.07
	c-0.638-0.031-1.278-0.051-1.919-0.073c-0.466-0.016-0.929-0.039-1.396-0.05c-0.825-0.02-1.651-0.027-2.479-0.031
	C256.567,0.009,256.312,0,256.054,0c-0.009,0-0.017,0-0.026,0c-0.01,0-0.018,0-0.028,0c-34.373,0-66.564,13.04-91.181,36.828
	c-10.517-2.652-21.306-3.995-32.135-3.995c-72.455,0-131.401,58.947-131.401,131.401c0,58.312,38.079,109.157,93.368,125.794
	v113.285v54.538c-12.694,2.341-22.344,13.484-22.344,26.845c0,15.056,12.249,27.304,27.305,27.304h312.775
	c15.056,0,27.305-12.248,27.305-27.304c0-13.361-9.649-24.504-22.343-26.845v-54.538V290.028H417.348z M17.449,164.234
	c0-63.54,51.693-115.232,115.232-115.232c6.617,0,13.216,0.581,19.731,1.715c-17.388,22.284-27.761,50.295-27.761,80.685
	c0,4.465,3.62,8.084,8.084,8.084c4.465,0,8.084-3.62,8.084-8.084c0-63.53,51.679-115.217,115.206-115.232
	c0.816,0,1.629,0.013,2.441,0.03c0.163,0.003,0.327,0.002,0.488,0.006c0.71,0.017,1.418,0.049,2.126,0.08
	c0.278,0.012,0.556,0.017,0.833,0.031c0.398,0.019,0.793,0.051,1.19,0.074c0.599,0.037,1.2,0.069,1.797,0.114
	c0.019,0.001,0.038,0.003,0.057,0.005c23.289,1.788,44.66,10.532,62.039,24.149c0.108,0.084,0.216,0.169,0.322,0.254
	c0.498,0.392,0.99,0.792,1.481,1.193c0.393,0.322,0.786,0.646,1.175,0.973c0.227,0.191,0.454,0.383,0.679,0.575
	c2.868,2.453,5.638,5.056,8.296,7.814c0.053,0.055,0.114,0.099,0.169,0.153c19.909,20.72,32.165,48.845,32.165,79.78
	c0,4.465,3.618,8.084,8.084,8.084c4.466,0,8.084-3.62,8.084-8.084c0-30.397-10.379-58.413-27.773-80.7
	c6.485-1.123,13.05-1.699,19.635-1.699c63.539,0,115.231,51.694,115.231,115.232c0,53.004-35.874,98.973-87.242,111.791
	c-3.601,0.899-6.128,4.134-6.128,7.844v111.358H356.04v-95.036c0-4.466-3.618-8.084-8.084-8.084c-4.465,0-8.084,3.618-8.084,8.084
	v95.035h-45.138v-95.035c0-4.466-3.62-8.084-8.084-8.084c-4.466,0-8.084,3.618-8.084,8.084v95.035h-45.138v-95.035
	c0-4.466-3.62-8.084-8.084-8.084c-4.465,0-8.084,3.618-8.084,8.084v95.035h-45.137v-95.035c0-4.466-3.62-8.084-8.084-8.084
	c-4.465,0-8.084,3.618-8.084,8.084v95.035h-45.138V283.87c0-3.71-2.527-6.945-6.127-7.844
	C53.325,263.209,17.449,217.239,17.449,164.234z M423.524,484.696c0,6.14-4.996,11.136-11.137,11.136H99.612
	c-6.141,0-11.137-4.996-11.137-11.136c0-6.141,4.996-11.137,11.137-11.137H347.62c4.465,0,8.084-3.618,8.084-8.084
	s-3.62-8.084-8.084-8.084H110.818v-45.994H401.18v45.994h-27.69c-4.466,0-8.084,3.618-8.084,8.084c0,4.466,3.618,8.084,8.084,8.084
	h38.897C418.528,473.559,423.524,478.555,423.524,484.696z"/>
<g style="opacity:0.2;">
	<path style="fill:#020202;" d="M119.007,262.202c-0.084-0.023-0.168-0.046-0.251-0.07c-0.279-0.071-0.442-0.098-0.442-0.098
		l0.039-0.014c-58.074-16.507-93.965-63.332-93.965-118.121c0-27.642,10.788-53.005,28.158-73.387
		C26.118,93.129,9.365,126.723,9.365,164.234c0,57.775,39.738,106.252,93.368,119.634v181.605h25.293V277.198
		C128.027,265.77,121.225,262.85,119.007,262.202z"/>
</g>
<g>
</g>
<g>
</g>
<g>
</g>
<g>
</g>
<g>
</g>
<g>
</g>
<g>
</g>
<g>
</g>
<g>
</g>
<g>
</g>
<g>
</g>
<g>
</g>
<g>
</g>
<g>
</g>
<g>
</g>
</svg>
