<?xml version="1.0" encoding="iso-8859-1"?>
<!-- Generator: Adobe Illustrator 19.0.0, SVG Export Plug-In . SVG Version: 6.00 Build 0)  -->
<svg xmlns="http://www.w3.org/2000/svg" xmlns:xlink="http://www.w3.org/1999/xlink" version="1.1" id="Layer_1" x="0px" y="0px" viewBox="0 0 512 512" style="enable-background:new 0 0 512 512;" xml:space="preserve">
<path style="fill:#FF8E76;" d="M203.969,251.042v42.588c0,17.411-14.114,31.526-31.526,31.526h-22.364  c-15.795,0-28.6,12.805-28.6,28.6v27.6v122.993h269.043V353.755c0-15.795-12.805-28.6-28.6-28.6h-22.365  c-17.411,0-31.526-14.114-31.526-31.526v-38.093L203.969,251.042z"/>
<path style="fill:#608ECF;" d="M172.508,325.155h-22.364c-15.795,0-28.6,12.805-28.6,28.6v27.601v122.993h269.043V353.755  c0-15.795-12.805-28.6-28.6-28.6h-22.365c-17.411,0-31.526-14.115-31.526-31.526v-2.516l-28.415,48.004h-33.852l-15.811-18.783  c0,0-14.822-15.518-25.984-27.403v0.697C204.034,311.041,189.92,325.155,172.508,325.155z"/>
<g style="opacity:0.33;">
	<path style="fill:#3D689C;" d="M363.962,325.155h-12.637v84.828c0,29.342-23.786,53.128-53.128,53.128H123.519v41.237h269.043   V353.755C392.562,337.96,379.757,325.155,363.962,325.155z"/>
</g>
<path style="fill:#FF8E76;" d="M159.316,130.675c-17.509,0-31.702,14.193-31.702,31.702s14.193,31.702,31.702,31.702l193.248-0.264  c17.509,0,31.702-14.193,31.702-31.702s-14.194-31.702-31.702-31.702L159.316,130.675z"/>
<path style="fill:#FFA591;" d="M254.058,7.651h10.866c49.414,0,89.844,40.43,89.844,89.844v86.825  c0,49.414-40.43,89.844-89.844,89.844h-10.866c-49.414,0-89.844-40.43-89.844-89.844V97.495c0-40.305,26.897-74.632,63.628-85.919  C227.842,11.576,239.333,7.651,254.058,7.651z"/>
<path style="opacity:0.36;fill:#FF8E76;enable-background:new    ;" d="M316.654,24.153c10.382,14.652,16.502,32.51,16.502,51.731  v86.825c0,49.414-40.43,89.844-89.844,89.844h-10.866c-19.22,0-37.079-6.118-51.731-16.501  c16.311,23.016,43.149,38.114,73.342,38.114h10.866c49.414,0,89.844-40.43,89.844-89.844V97.495  C354.768,67.301,339.671,40.464,316.654,24.153z"/>
<path style="fill:#892813;" d="M210.951,80.422c26.808,26.808,70.272,26.808,97.08,0v0.028c0,22.178,17.979,40.157,40.157,40.157  h6.581V97.495c0-49.414-40.43-89.844-89.844-89.844h-10.866c-14.725,0-26.216,3.925-26.216,3.925  c-36.731,11.287-63.628,45.614-63.628,85.919v23.111C205.151,120.606,210.951,80.422,210.951,80.422z"/>
<g>
	<polyline style="fill:#FFFFFF;" points="203.969,282.63 255.94,339.485 203.966,353.979 203.969,282.63  "/>
	<polyline style="fill:#FFFFFF;" points="308.488,282.63 255.94,339.485 307.314,354.379 308.488,282.63  "/>
</g>
<polygon style="fill:#3D689C;" points="228.348,480.412 256.215,339.118 284.082,480.412 256.215,504.349 "/>
<path d="M231.153,204.428c-2.988-2.987-7.832-2.987-10.819,0c-2.988,2.989-2.988,7.832,0,10.82  c10.796,10.796,24.977,16.193,39.158,16.193c14.18,0,28.361-5.397,39.158-16.193c2.988-2.989,2.988-7.832,0-10.82  c-2.989-2.987-7.832-2.987-10.82,0C272.204,220.054,246.779,220.056,231.153,204.428z"/>
<path d="M222.58,133.257c-4.225,0-7.651,3.424-7.651,7.651v24.482c0,4.226,3.425,7.651,7.651,7.651c4.225,0,7.651-3.424,7.651-7.651  v-24.482C230.231,136.681,226.805,133.257,222.58,133.257z"/>
<path d="M293.238,173.04c4.226,0,7.651-3.424,7.651-7.651v-24.482c0-4.226-3.424-7.651-7.651-7.651s-7.651,3.424-7.651,7.651v24.482  C285.588,169.615,289.013,173.04,293.238,173.04z"/>
<path d="M361.921,317.504h-22.364c-13.164,0-23.874-10.71-23.874-23.874v-26.1c23.507-14.392,40.473-38.462,45.319-66.624  c18.579-3.14,32.778-19.335,32.778-38.792c0-18.962-13.48-34.832-31.361-38.536V97.495C362.42,43.736,318.684,0,264.926,0h-10.867  c-4.225,0-7.651,3.424-7.651,7.651s3.425,7.651,7.651,7.651h10.867c45.321,0,82.192,36.872,82.192,82.194v15.433  c-17.429-0.568-31.435-14.914-31.435-32.48c0-0.004-0.001-0.008-0.001-0.011c0.004-1.963-0.743-3.927-2.24-5.425  c-2.989-2.989-7.833-2.988-10.819-0.001c-23.782,23.782-62.479,23.782-86.262,0c-2.988-2.987-7.832-2.988-10.819,0.001  c-2.988,2.988-2.988,7.832,0,10.819c14.874,14.873,34.412,22.309,53.95,22.309c15.086,0,30.162-4.454,43.101-13.32  c6.011,19.028,23.627,32.936,44.504,33.408c-0.206,0.692-0.32,1.424-0.32,2.182c0,0.79,0.119,1.551,0.342,2.267v51.643  c0,45.322-36.872,82.194-82.193,82.194H254.06c-45.321,0-82.194-36.872-82.194-82.193V97.495c0-35.748,23.943-68.07,58.226-78.606  c4.039-1.241,6.307-5.521,5.066-9.56c-1.241-4.039-5.522-6.308-9.561-5.066c-19.515,5.997-37.078,18.351-49.453,34.789  c-12.808,17.014-19.579,37.223-19.579,58.443v25.809c-19.532,2.293-34.738,18.936-34.738,39.073  c0,20.662,16.008,37.642,36.271,39.221c4.489,24.999,18.543,46.717,38.222,61.229v25.186v5.626  c-0.005,13.16-10.713,23.865-23.875,23.865H150.08c-19.989,0-36.251,16.261-36.251,36.251c0,4.226,3.425,7.651,7.651,7.651  s7.651-3.424,7.651-7.651c0-11.551,9.398-20.949,20.95-20.949h22.364c8.98,0,17.259-3.045,23.873-8.145l-0.001,32.97  c0,2.392,1.119,4.646,3.024,6.094c1.346,1.021,2.975,1.557,4.627,1.557c0.687,0,1.378-0.093,2.054-0.281l38.956-10.864  L220.25,479.512c-0.534,2.704,0.429,5.487,2.522,7.284l27.19,23.356c1.433,1.231,3.209,1.847,4.985,1.847  c1.776,0,3.551-0.616,4.985-1.847l27.19-23.356c2.092-1.797,3.054-4.579,2.522-7.284l-24.66-125.031l37.12,10.881  c0.706,0.207,1.431,0.309,2.151,0.309c1.614,0,3.207-0.511,4.536-1.49c1.923-1.416,3.075-3.649,3.113-6.037l0.586-36.232  c7.04,6.74,16.573,10.893,27.065,10.893h22.365c11.551,0,20.95,9.398,20.95,20.949v119.734c0,4.226,3.424,7.651,7.651,7.651  s7.651-3.424,7.651-7.651V353.755C398.173,333.765,381.91,317.504,361.921,317.504z M378.478,162.113  c0,10.462-6.718,19.382-16.065,22.682c0.001-0.159,0.006-0.316,0.006-0.475v-44.888  C371.763,142.735,378.478,151.652,378.478,162.113z M137.126,162.377c0-11.684,8.375-21.444,19.437-23.603v45.546  c0,0.556,0.012,1.11,0.021,1.664C145.512,183.833,137.126,174.069,137.126,162.377z M211.617,347.554l0.001-39.832l29.014,31.74  L211.617,347.554z M254.946,494.264l-18.822-16.168l18.822-95.429l18.822,95.429L254.946,494.264z M296.768,347.854l-28.168-8.258  l28.81-31.518L296.768,347.854z M254.678,332.147l-43.058-47.105v-12.96c12.837,6.233,27.235,9.732,42.438,9.732h10.867  c12.502,0,24.462-2.369,35.456-6.675v7.11c-0.22,0.192-0.441,0.383-0.641,0.601L254.678,332.147z"/>
<path d="M121.478,373.706c-4.225,0-7.651,3.424-7.651,7.651v92.132c0,4.226,3.425,7.651,7.651,7.651s7.651-3.424,7.651-7.651  v-92.132C129.129,377.13,125.704,373.706,121.478,373.706z"/>
<g>
</g>
<g>
</g>
<g>
</g>
<g>
</g>
<g>
</g>
<g>
</g>
<g>
</g>
<g>
</g>
<g>
</g>
<g>
</g>
<g>
</g>
<g>
</g>
<g>
</g>
<g>
</g>
<g>
</g>
</svg>
