<?xml version="1.0" encoding="utf-8"?>
<!-- Generator: Adobe Illustrator 16.0.0, SVG Export Plug-In . SVG Version: 6.00 Build 0)  -->
<!DOCTYPE svg PUBLIC "-//W3C//DTD SVG 1.1//EN" "http://www.w3.org/Graphics/SVG/1.1/DTD/svg11.dtd">
<svg version="1.1" id="Layer_1" xmlns="http://www.w3.org/2000/svg" xmlns:xlink="http://www.w3.org/1999/xlink" x="0px" y="0px"
	 width="130px" height="130px" viewBox="0 0 130 130" enable-background="new 0 0 130 130" xml:space="preserve">
<g>
	<g>
		<g>
			<g>
				<g>
					<g>
						<g>
							<g>
								<g>
									<polygon fill="#11100D" points="118.574,104.383 75.928,129 75.928,89.156 100.373,75.967 118.574,79.439 									"/>
									<polygon fill="#444235" points="75.928,89.156 11.205,66.713 11.205,91.656 75.928,129 									"/>
									<polygon fill="#2D2B23" points="75.928,100.363 75.928,125.309 118.574,100.682 118.574,75.742 									"/>
									<polygon fill="#595745" points="75.928,100.363 11.205,63.01 11.205,87.959 75.928,125.309 									"/>
									<polyline fill="#444235" points="75.928,125.309 75.928,100.363 11.205,63.01 									"/>
									<polygon fill="#29700B" points="75.928,116.962 118.574,92.336 118.574,89.357 75.928,113.984 									"/>
									<polygon fill="#3EB512" points="11.205,79.613 75.928,116.962 75.928,113.984 11.205,76.635 									"/>
									<polygon fill="#8DB2AB" points="75.928,111.945 118.574,87.319 118.574,84.342 75.928,108.967 									"/>
									<polygon fill="#BFDDD7" points="11.205,74.596 75.928,111.945 75.928,108.967 11.205,71.619 									"/>
									<polygon fill="#9E1010" points="75.928,106.93 118.574,82.303 118.574,79.324 75.928,103.951 									"/>
									<polygon fill="#FC0B0B" points="11.205,69.58 75.928,106.93 75.928,103.951 11.205,66.602 									"/>
									<polygon fill="#FC0B0B" points="118.582,75.745 53.773,38.363 11.205,63.01 75.928,100.363 									"/>
									<polygon fill="#AA3317" points="36.539,77.631 75.928,100.363 91.986,91.096 91.986,85.908 36.539,56.92 									"/>
									<path fill="#072C51" d="M53.395,38.157"/>
									<path fill="#072C51" d="M118.201,75.541"/>
									<path fill="#072C51" d="M118.574,75.742"/>
								</g>
							</g>
						</g>
						<g>
							<g>
								<path fill="#BC0A0A" d="M11.205,63.293c-0.098,0-0.193-0.047-0.248-0.143c-0.076-0.133-0.029-0.307,0.105-0.383
									l42.572-24.658c0.129-0.079,0.309-0.031,0.387,0.104c0.074,0.139,0.029,0.309-0.105,0.389l-42.57,24.656
									C11.303,63.284,11.252,63.293,11.205,63.293z"/>
							</g>
							<g>
								<path fill="#BC0A0A" d="M13.914,64.854c-0.098,0-0.193-0.053-0.248-0.141c-0.076-0.131-0.031-0.306,0.107-0.387
									l42.568-24.66c0.133-0.072,0.309-0.029,0.387,0.109c0.076,0.135,0.031,0.308-0.104,0.389l-42.57,24.654
									C14.012,64.84,13.963,64.854,13.914,64.854z"/>
							</g>
							<g>
								<path fill="#BC0A0A" d="M16.619,66.412c-0.094,0-0.188-0.055-0.238-0.146c-0.082-0.129-0.035-0.301,0.102-0.379
									l42.568-24.662c0.131-0.068,0.307-0.029,0.385,0.107c0.076,0.135,0.033,0.308-0.1,0.389L16.764,66.369
									C16.717,66.398,16.67,66.412,16.619,66.412z"/>
							</g>
							<g>
								<path fill="#BC0A0A" d="M19.336,67.974c-0.1,0-0.197-0.052-0.248-0.142c-0.084-0.137-0.033-0.308,0.105-0.385l42.566-24.66
									c0.137-0.075,0.309-0.03,0.389,0.104c0.074,0.131,0.031,0.31-0.104,0.389l-42.57,24.654
									C19.43,67.959,19.377,67.974,19.336,67.974z"/>
							</g>
							<g>
								<path fill="#BC0A0A" d="M22.043,69.532c-0.098,0-0.195-0.052-0.246-0.144c-0.076-0.129-0.029-0.307,0.105-0.385
									l42.568-24.655c0.133-0.085,0.305-0.035,0.383,0.104c0.078,0.135,0.033,0.304-0.098,0.381L22.182,69.495
									C22.139,69.518,22.088,69.532,22.043,69.532z"/>
							</g>
							<g>
								<path fill="#BC0A0A" d="M24.752,71.089c-0.098,0-0.195-0.053-0.248-0.141c-0.074-0.132-0.029-0.304,0.104-0.386
									l42.57-24.658c0.135-0.074,0.309-0.035,0.389,0.105c0.076,0.134,0.031,0.309-0.104,0.382l-42.57,24.663
									C24.848,71.076,24.795,71.089,24.752,71.089z"/>
							</g>
							<g>
								<path fill="#BC0A0A" d="M27.459,72.646c-0.098,0-0.193-0.045-0.246-0.139c-0.074-0.135-0.031-0.31,0.107-0.383
									l42.568-24.661c0.131-0.079,0.305-0.03,0.387,0.103c0.074,0.135,0.031,0.314-0.102,0.387L27.602,72.609
									C27.557,72.635,27.508,72.646,27.459,72.646z"/>
							</g>
							<g>
								<path fill="#BC0A0A" d="M30.168,74.211c-0.096,0-0.191-0.052-0.244-0.145c-0.076-0.137-0.033-0.311,0.105-0.387
									l42.566-24.66c0.135-0.072,0.309-0.031,0.389,0.108c0.078,0.13,0.031,0.303-0.104,0.388L30.311,74.17
									C30.266,74.197,30.217,74.211,30.168,74.211z"/>
							</g>
							<g>
								<path fill="#BC0A0A" d="M32.879,75.766c-0.1,0-0.191-0.051-0.242-0.139c-0.08-0.132-0.035-0.312,0.1-0.389l42.568-24.657
									c0.131-0.072,0.309-0.034,0.387,0.104c0.076,0.136,0.035,0.308-0.102,0.39L33.02,75.729
									C32.975,75.756,32.926,75.766,32.879,75.766z"/>
							</g>
							<g>
								<path fill="#BC0A0A" d="M35.59,77.324c-0.098,0-0.193-0.045-0.246-0.137c-0.08-0.137-0.033-0.312,0.104-0.388l42.57-24.661
									c0.131-0.076,0.305-0.03,0.389,0.104c0.07,0.136,0.029,0.31-0.107,0.386l-42.566,24.66
									C35.684,77.312,35.633,77.324,35.59,77.324z"/>
							</g>
							<g>
								<path fill="#BC0A0A" d="M38.297,78.879c-0.098,0-0.191-0.045-0.244-0.133c-0.076-0.134-0.031-0.312,0.096-0.389
									l42.578-24.66c0.129-0.076,0.305-0.03,0.387,0.107c0.074,0.133,0.029,0.309-0.104,0.387L38.441,78.848
									C38.393,78.871,38.348,78.879,38.297,78.879z"/>
							</g>
							<g>
								<path fill="#BC0A0A" d="M41.006,80.441c-0.096,0-0.193-0.053-0.246-0.137c-0.074-0.139-0.033-0.312,0.105-0.389
									l42.566-24.66c0.133-0.076,0.312-0.031,0.391,0.104c0.078,0.138,0.031,0.312-0.104,0.389L41.15,80.404
									C41.104,80.43,41.057,80.441,41.006,80.441z"/>
							</g>
							<g>
								<path fill="#BC0A0A" d="M43.715,82.002c-0.098,0-0.193-0.046-0.242-0.136c-0.076-0.138-0.035-0.312,0.1-0.39l42.57-24.658
									c0.133-0.078,0.309-0.035,0.387,0.104c0.078,0.134,0.031,0.31-0.102,0.383L43.855,81.967
									C43.812,81.993,43.764,82.002,43.715,82.002z"/>
							</g>
							<g>
								<path fill="#BC0A0A" d="M46.422,83.562c-0.096,0-0.189-0.05-0.242-0.143c-0.076-0.135-0.031-0.311,0.102-0.389
									l42.572-24.654c0.129-0.083,0.307-0.036,0.393,0.104c0.072,0.134,0.027,0.307-0.111,0.385L46.564,83.52
									C46.52,83.547,46.475,83.562,46.422,83.562z"/>
							</g>
							<g>
								<path fill="#BC0A0A" d="M49.133,85.121c-0.094,0-0.189-0.05-0.244-0.14c-0.074-0.141-0.033-0.312,0.102-0.388l42.572-24.66
									c0.129-0.074,0.307-0.036,0.389,0.109c0.072,0.133,0.031,0.304-0.105,0.383l-42.57,24.656
									C49.232,85.109,49.184,85.121,49.133,85.121z"/>
							</g>
							<g>
								<path fill="#BC0A0A" d="M51.842,86.68c-0.094,0-0.189-0.05-0.244-0.143c-0.078-0.135-0.031-0.305,0.104-0.385l42.57-24.658
									c0.131-0.08,0.305-0.029,0.389,0.102c0.072,0.135,0.029,0.308-0.105,0.387l-42.57,24.661
									C51.938,86.668,51.891,86.68,51.842,86.68z"/>
							</g>
							<g>
								<path fill="#BC0A0A" d="M54.551,88.237c-0.094,0-0.191-0.051-0.244-0.139c-0.076-0.14-0.029-0.31,0.104-0.389l42.57-24.655
									c0.135-0.076,0.307-0.037,0.389,0.099c0.076,0.14,0.027,0.312-0.102,0.389l-42.572,24.66
									C54.65,88.229,54.602,88.237,54.551,88.237z"/>
							</g>
							<g>
								<path fill="#BC0A0A" d="M57.262,89.799c-0.096,0-0.193-0.054-0.248-0.146c-0.072-0.13-0.031-0.304,0.105-0.387
									l42.568-24.657c0.135-0.076,0.314-0.027,0.389,0.107c0.08,0.133,0.031,0.303-0.102,0.387l-42.57,24.654
									C57.359,89.788,57.311,89.799,57.262,89.799z"/>
							</g>
							<g>
								<path fill="#BC0A0A" d="M59.969,91.357c-0.094,0-0.191-0.051-0.24-0.143c-0.078-0.135-0.031-0.311,0.1-0.391l42.574-24.652
									c0.129-0.08,0.305-0.035,0.383,0.104c0.08,0.133,0.033,0.307-0.104,0.384l-42.568,24.66
									C60.07,91.342,60.018,91.357,59.969,91.357z"/>
							</g>
							<g>
								<path fill="#BC0A0A" d="M62.682,92.911c-0.098,0-0.193-0.042-0.248-0.14c-0.076-0.129-0.031-0.307,0.104-0.389l42.57-24.652
									c0.131-0.08,0.309-0.035,0.391,0.104c0.074,0.133,0.031,0.31-0.107,0.383L62.82,92.873
									C62.777,92.898,62.73,92.911,62.682,92.911z"/>
							</g>
							<g>
								<path fill="#BC0A0A" d="M65.389,94.473c-0.098,0-0.189-0.051-0.244-0.141c-0.074-0.136-0.033-0.309,0.104-0.391
									l42.57-24.654c0.131-0.078,0.307-0.027,0.385,0.104c0.076,0.138,0.031,0.31-0.102,0.391L65.533,94.435
									C65.488,94.466,65.438,94.473,65.389,94.473z"/>
							</g>
							<g>
								<path fill="#BC0A0A" d="M68.098,96.031c-0.1,0-0.191-0.051-0.246-0.139c-0.076-0.135-0.029-0.312,0.105-0.389l42.572-24.654
									c0.129-0.08,0.307-0.033,0.383,0.099c0.078,0.136,0.033,0.312-0.1,0.389l-42.57,24.657
									C68.195,96.023,68.146,96.031,68.098,96.031z"/>
							</g>
							<g>
								<path fill="#BC0A0A" d="M70.809,97.588c-0.098,0-0.195-0.049-0.248-0.139c-0.076-0.135-0.027-0.31,0.105-0.383l42.57-24.662
									c0.135-0.075,0.309-0.031,0.387,0.104c0.076,0.135,0.031,0.306-0.102,0.386l-42.57,24.661
									C70.906,97.576,70.855,97.588,70.809,97.588z"/>
							</g>
							<g>
								<path fill="#BC0A0A" d="M73.518,99.156c-0.098,0-0.193-0.054-0.248-0.145c-0.074-0.141-0.027-0.311,0.105-0.391l42.57-24.66
									c0.131-0.074,0.309-0.031,0.385,0.109c0.078,0.134,0.033,0.305-0.102,0.382L73.66,99.111
									C73.613,99.139,73.566,99.156,73.518,99.156z"/>
							</g>
							<g>
								<path fill="#BC0A0A" d="M76.225,100.711c-0.098,0-0.193-0.051-0.242-0.139c-0.076-0.145-0.031-0.312,0.1-0.395
									l42.574-24.652c0.129-0.076,0.305-0.03,0.385,0.102c0.076,0.136,0.035,0.306-0.105,0.387l-42.564,24.657
									C76.326,100.695,76.275,100.711,76.225,100.711z"/>
							</g>
						</g>
					</g>
				</g>
				<g>
					<g>
						<g>
							<polygon fill="#21A0B5" points="89.367,103.658 82.316,107.727 82.316,124.658 89.371,120.586 							"/>
						</g>
						<polygon fill="#0993AA" points="89.367,103.658 82.316,107.727 82.316,116.502 89.371,120.57 						"/>
						<polyline fill="#1C839B" points="89.367,103.658 82.316,107.727 82.316,116.502 						"/>
					</g>
					<g>
						<polygon fill="#AECACC" points="88.754,113.699 88.754,113.984 87.883,114.484 87.883,114.199 						"/>
						<polygon fill="#BFDCDD" points="88.498,113.557 88.754,113.709 87.883,114.203 87.635,114.053 						"/>
						<g>
							<polyline fill="#95AEAF" points="87.635,114.053 87.883,114.203 87.883,114.484 87.635,114.338 							"/>
							<polyline fill="#BFDCDD" points="87.883,114.168 87.883,114.203 87.635,114.053 87.664,114.037 							"/>
						</g>
					</g>
				</g>
			</g>
			<polygon fill="#AA3317" points="47.557,71.27 86.945,94.002 103.004,84.734 103.004,79.547 47.557,50.559 			"/>
			<polygon fill="#AA3317" points="58.574,64.908 97.963,87.641 114.021,78.373 114.021,73.186 58.574,44.197 			"/>
			<polygon fill="#AA3317" points="69.816,58.535 109.105,81.21 114.021,78.373 114.021,73.186 69.816,50.074 			"/>
			<g>
				<g>
					<g>
						<path fill="#B77723" d="M63.355,31.714c-4.832,8.549-7.986,15.849,0.57,20.68l39.48,22.423
							c8.551,4.841,12.84,1.213,9.537-8.043L92.047,8.334c-3.289-9.265-9.959-9.82-14.777-1.274L63.355,31.714z"/>
					</g>
					<path fill="#D6BE45" d="M100.283,62.708l-39.48-22.42c-0.447-0.253-0.855-0.517-1.242-0.782
						c0.875-2.441,2.246-5.05,3.795-7.792L77.27,7.06c4.818-8.546,11.488-7.99,14.777,1.274l18.838,52.682
						C110.408,65.283,106.457,66.207,100.283,62.708z"/>
					<path fill="#DDA54A" d="M103.406,74.816l-39.48-22.423c-8.557-4.831-5.402-12.131-0.57-20.68L77.27,7.06
						c1.217-2.155,2.549-3.73,3.916-4.733c1.504,1.189,2.842,3.215,3.857,6.074l20.896,58.439c1.596,4.475,1.414,7.627-0.16,9.151
						C105.031,75.676,104.238,75.287,103.406,74.816z"/>
					<path fill="#EDB564" d="M63.926,52.394c-8.557-4.831-5.402-12.131-0.57-20.68L77.27,7.06c1.217-2.155,2.549-3.73,3.916-4.733"
						/>
					<path fill="#EDB564" d="M105.939,66.84c1.596,4.475,1.414,7.627-0.16,9.151"/>
					<path fill="#CC8F37" d="M77.27,7.06c1.217-2.155,2.549-3.73,3.916-4.733c1.504,1.189,2.842,3.215,3.857,6.074l20.896,58.439
						c1.596,4.475,1.414,7.627-0.16,9.151c-0.748-0.315-1.541-0.704-2.373-1.175"/>
					<path fill="#F2E26B" d="M100.283,62.708l-39.48-22.42c-0.447-0.253-0.855-0.517-1.242-0.782
						c0.875-2.441,2.246-5.05,3.795-7.792L77.27,7.06c1.217-2.155,2.549-3.73,3.916-4.733c1.504,1.189,2.842,3.215,3.857,6.074
						l20.125,56.283C103.756,64.396,102.119,63.748,100.283,62.708z"/>
					<path fill="#FFEB78" d="M60.803,40.288c-0.447-0.253-0.855-0.517-1.242-0.782c0.219-0.608,0.467-1.226,0.738-1.854
						c0.006-0.009,0.01-0.018,0.016-0.027c0.129-0.295,0.262-0.59,0.4-0.889c0.016-0.029,0.027-0.057,0.043-0.087
						c0.293-0.624,0.607-1.257,0.943-1.897c0.008-0.02,0.016-0.035,0.025-0.053c0.15-0.287,0.303-0.574,0.455-0.865
						c0.045-0.072,0.084-0.15,0.127-0.229c0.129-0.235,0.258-0.476,0.393-0.718c0.045-0.08,0.09-0.162,0.133-0.244
						c0.172-0.308,0.344-0.617,0.521-0.929L77.27,7.06c1.217-2.155,2.549-3.73,3.916-4.733L66.906,43.752L60.803,40.288z"/>
					<path fill="#E8D252" d="M77.27,7.06c1.217-2.155,2.549-3.73,3.916-4.733c1.504,1.189,2.842,3.215,3.857,6.074l20.125,56.283
						c-1.412-0.287-3.049-0.936-4.885-1.976"/>
					<g>
						<g>
							<path fill="#9E0707" d="M83.912,29.842l-5.145-8.709l0.734-0.436c0.006-0.002,0.012-0.006-0.139,0.082l0.078-0.046
								l0.16-0.082c0.637-0.329,1.494-0.271,2.441,0.265c1.98,1.118,3.617,3.889,3.641,6.164c0.01,1.09-0.352,1.867-0.947,2.266
								l-0.15,0.1L83.912,29.842z"/>
							<path fill="#8E0C0C" d="M82.043,20.916c1.98,1.118,3.617,3.889,3.641,6.164c0.01,1.09-0.352,1.867-0.947,2.266l-0.15,0.1
								l-0.674,0.396l-4.393-7.438L82.043,20.916z"/>
							<path fill="#FC0B0B" d="M81.451,29.578c-1.98-1.117-3.617-3.891-3.641-6.163c-0.021-2.275,1.58-3.223,3.562-2.104
								c1.979,1.119,3.615,3.892,3.639,6.166S83.434,30.695,81.451,29.578z"/>
							<path fill="#FF4200" d="M81.451,29.578c-1.98-1.117-3.617-3.891-3.641-6.163"/>
							<path fill="#E50707" d="M81.373,21.311c1.979,1.119,3.615,3.892,3.639,6.166s-1.578,3.219-3.561,2.102"/>
						</g>
					</g>
					<g>
						<g>
							<path fill="#9E0707" d="M66.062,39.398l-2.141-3.623l0.305-0.182c0.004-0.002,0.006-0.002-0.059,0.035l0.033-0.02
								l0.066-0.036c0.264-0.137,0.621-0.112,1.016,0.11c0.826,0.465,1.508,1.621,1.518,2.567c0.004,0.451-0.148,0.776-0.395,0.94
								l-0.066,0.042L66.062,39.398z"/>
							<path fill="#8E0C0C" d="M65.283,35.684c0.826,0.465,1.508,1.621,1.518,2.567c0.004,0.451-0.148,0.776-0.395,0.94
								l-0.066,0.042l-0.277,0.165l-1.828-3.096L65.283,35.684z"/>
							<path fill="#FC0B0B" d="M65.037,39.291c-0.822-0.466-1.504-1.619-1.516-2.567c-0.01-0.948,0.658-1.341,1.482-0.877
								c0.824,0.469,1.506,1.622,1.516,2.569C66.529,39.361,65.863,39.756,65.037,39.291z"/>
							<path fill="#FF4200" d="M65.037,39.291c-0.822-0.466-1.504-1.619-1.516-2.567"/>
							<path fill="#E50707" d="M65.004,35.847c0.824,0.469,1.506,1.622,1.516,2.569c0.01,0.945-0.656,1.34-1.482,0.875"/>
						</g>
					</g>
					<g>
						<g>
							<path fill="#9E0707" d="M97.436,58.732l-2.975-5.033l0.426-0.252c0-0.001,0.004-0.004-0.082,0.049l0.045-0.027l0.092-0.048
								c0.369-0.192,0.863-0.157,1.41,0.151c1.146,0.646,2.092,2.252,2.107,3.564c0.004,0.628-0.205,1.079-0.549,1.31l-0.086,0.058
								L97.436,58.732z"/>
							<path fill="#8E0C0C" d="M96.352,53.572c1.146,0.646,2.092,2.252,2.107,3.564c0.004,0.628-0.205,1.079-0.549,1.31
								l-0.086,0.058l-0.389,0.229l-2.541-4.298L96.352,53.572z"/>
							<path fill="#FC0B0B" d="M96.01,58.582c-1.143-0.646-2.088-2.253-2.104-3.566c-0.012-1.314,0.914-1.861,2.061-1.216
								c1.143,0.647,2.09,2.253,2.104,3.565C98.084,58.682,97.158,59.227,96.01,58.582z"/>
							<path fill="#FF4200" d="M96.01,58.582c-1.143-0.646-2.088-2.253-2.104-3.566"/>
							<path fill="#E50707" d="M95.967,53.8c1.143,0.647,2.09,2.253,2.104,3.565c0.014,1.316-0.912,1.861-2.061,1.217"/>
						</g>
					</g>
					<g>
						<g>
							<path fill="#9E0707" d="M86.414,48.619l-3.191-5.404l0.455-0.27c0.004-0.002,0.006-0.004-0.086,0.052l0.047-0.026
								l0.098-0.056c0.398-0.202,0.93-0.167,1.518,0.165c1.229,0.691,2.244,2.412,2.26,3.824c0.006,0.674-0.219,1.158-0.59,1.407
								l-0.094,0.062L86.414,48.619z"/>
							<path fill="#8E0C0C" d="M85.254,43.08c1.229,0.691,2.244,2.412,2.26,3.824c0.006,0.674-0.219,1.158-0.59,1.407l-0.094,0.062
								l-0.416,0.246l-2.727-4.615L85.254,43.08z"/>
							<path fill="#FC0B0B" d="M84.887,48.455c-1.229-0.695-2.246-2.416-2.258-3.823c-0.014-1.413,0.979-2.001,2.209-1.307
								c1.227,0.692,2.244,2.414,2.258,3.825C87.111,48.562,86.115,49.148,84.887,48.455z"/>
							<path fill="#FF4200" d="M84.887,48.455c-1.229-0.695-2.246-2.416-2.258-3.823"/>
							<path fill="#E50707" d="M84.838,43.325c1.227,0.692,2.244,2.414,2.258,3.825c0.016,1.411-0.98,1.998-2.209,1.305"/>
						</g>
					</g>
					<g>
						<g>
							<path fill="#9E0707" d="M75.576,37.49l-2.277-3.858l0.324-0.191c0.002-0.004,0.004-0.002-0.061,0.036l0.033-0.021l0.07-0.037
								c0.283-0.146,0.662-0.12,1.082,0.117c0.877,0.494,1.602,1.724,1.613,2.729c0.004,0.482-0.156,0.828-0.422,1.007l-0.064,0.043
								L75.576,37.49z"/>
							<path fill="#8E0C0C" d="M74.748,33.536c0.877,0.494,1.602,1.724,1.613,2.729c0.004,0.482-0.156,0.828-0.422,1.007
								l-0.064,0.043l-0.299,0.175l-1.945-3.295L74.748,33.536z"/>
							<path fill="#FC0B0B" d="M74.486,37.373c-0.877-0.494-1.604-1.723-1.613-2.73c-0.008-1.008,0.699-1.426,1.578-0.931
								c0.877,0.493,1.604,1.725,1.613,2.729C76.074,37.448,75.365,37.869,74.486,37.373z"/>
							<path fill="#FF4200" d="M74.486,37.373c-0.877-0.494-1.604-1.723-1.613-2.73"/>
							<path fill="#E50707" d="M74.451,33.712c0.877,0.493,1.604,1.725,1.613,2.729c0.01,1.007-0.699,1.428-1.578,0.932"/>
						</g>
					</g>
					<g>
						<g>
							<path fill="#9E0707" d="M77.191,45.547l-2.277-3.859l0.322-0.189c0.004,0,0.006-0.002-0.059,0.035l0.033-0.02l0.068-0.037
								c0.283-0.146,0.664-0.12,1.084,0.115c0.873,0.498,1.602,1.727,1.611,2.73c0.006,0.484-0.154,0.83-0.42,1.006l-0.064,0.043
								L77.191,45.547z"/>
							<path fill="#8E0C0C" d="M76.363,41.592c0.873,0.498,1.602,1.727,1.611,2.73c0.006,0.484-0.154,0.83-0.42,1.006l-0.064,0.043
								l-0.299,0.176l-1.945-3.293L76.363,41.592z"/>
							<path fill="#FC0B0B" d="M76.1,45.431c-0.875-0.493-1.602-1.724-1.611-2.731c-0.008-1.007,0.701-1.428,1.578-0.932
								c0.875,0.496,1.602,1.725,1.611,2.731C77.691,45.507,76.979,45.926,76.1,45.431z"/>
							<path fill="#FF4200" d="M76.1,45.431c-0.875-0.493-1.602-1.724-1.611-2.731"/>
							<path fill="#E50707" d="M76.066,41.768c0.875,0.496,1.602,1.725,1.611,2.731c0.014,1.008-0.699,1.427-1.578,0.932"/>
						</g>
					</g>
					<g>
						<g>
							<path fill="#9E0707" d="M92.115,43.144l-2.277-3.858l0.324-0.192c0.004-0.002,0.006-0.002-0.062,0.037l0.035-0.021
								l0.07-0.034c0.283-0.148,0.664-0.122,1.082,0.115c0.879,0.495,1.604,1.723,1.613,2.732c0.006,0.48-0.154,0.824-0.42,1.004
								l-0.066,0.043L92.115,43.144z"/>
							<path fill="#8E0C0C" d="M91.287,39.189c0.879,0.495,1.604,1.723,1.613,2.732c0.006,0.48-0.154,0.824-0.42,1.004l-0.066,0.043
								l-0.299,0.175l-1.943-3.294L91.287,39.189z"/>
							<path fill="#FC0B0B" d="M91.025,43.027c-0.877-0.496-1.604-1.723-1.613-2.731c-0.008-1.009,0.701-1.427,1.58-0.931
								c0.877,0.494,1.602,1.723,1.611,2.73C92.615,43.104,91.904,43.521,91.025,43.027z"/>
							<path fill="#FF4200" d="M91.025,43.027c-0.877-0.496-1.604-1.723-1.613-2.731"/>
							<path fill="#E50707" d="M90.992,39.365c0.877,0.494,1.602,1.723,1.611,2.73c0.012,1.008-0.699,1.426-1.578,0.932"/>
						</g>
					</g>
					<g>
						<g>
							<path fill="#9E0707" d="M73.205,23.311l1.492,2.525l-0.215,0.126c0,0-0.004,0.002,0.037-0.024l-0.021,0.015l-0.043,0.025
								c-0.188,0.093-0.43,0.075-0.709-0.077c-0.574-0.324-1.049-1.129-1.059-1.793c0.006-0.312,0.105-0.536,0.279-0.652
								l0.041-0.031L73.205,23.311z"/>
							<path fill="#8E0C0C" d="M73.746,25.9c-0.574-0.324-1.049-1.129-1.059-1.793c0.006-0.312,0.105-0.536,0.279-0.652l0.041-0.031
								l0.197-0.113l1.275,2.158L73.746,25.9z"/>
							<path fill="#FC0B0B" d="M73.92,23.381c0.576,0.331,1.051,1.135,1.057,1.795c0,0.658-0.459,0.93-1.037,0.611
								c-0.572-0.326-1.047-1.129-1.059-1.793C72.883,23.34,73.344,23.066,73.92,23.381z"/>
							<path fill="#FF4200" d="M73.92,23.381c0.576,0.331,1.051,1.135,1.057,1.795"/>
							<path fill="#E50707" d="M73.939,25.787c-0.572-0.326-1.047-1.129-1.059-1.793c0.002-0.654,0.463-0.928,1.039-0.613"/>
						</g>
					</g>
					<g>
						<g>
							<path fill="#9E0707" d="M79.654,9.252l1.49,2.527l-0.215,0.129c0,0-0.006,0.001,0.037-0.024l-0.021,0.013l-0.043,0.025
								c-0.186,0.095-0.43,0.075-0.707-0.08c-0.578-0.321-1.051-1.125-1.059-1.789c0.004-0.311,0.105-0.535,0.277-0.654l0.041-0.028
								L79.654,9.252z"/>
							<path fill="#8E0C0C" d="M80.195,11.842c-0.578-0.321-1.051-1.125-1.059-1.789c0.004-0.311,0.105-0.535,0.277-0.654
								l0.041-0.028l0.199-0.118l1.273,2.16L80.195,11.842z"/>
							<path fill="#FC0B0B" d="M80.365,9.327c0.576,0.329,1.051,1.131,1.057,1.792c0.004,0.659-0.455,0.931-1.035,0.611
								c-0.572-0.324-1.047-1.128-1.057-1.791C79.33,9.283,79.791,9.01,80.365,9.327z"/>
							<path fill="#FF4200" d="M80.365,9.327c0.576,0.329,1.051,1.131,1.057,1.792"/>
							<path fill="#E50707" d="M80.387,11.73c-0.572-0.324-1.047-1.128-1.057-1.791c0-0.656,0.461-0.93,1.035-0.612"/>
						</g>
					</g>
					<path fill="#DBC142" d="M70.561,32.137c-1.098-0.62-2.006-2.157-2.018-3.416c-0.014-1.264,0.873-1.788,1.973-1.166
						c0.938,0.528,1.738,1.729,1.957,2.854c0.039,0.192,0.059,0.381,0.062,0.563C72.545,32.23,71.656,32.756,70.561,32.137z"/>
					<path fill="#DBC142" d="M81.758,39.434c-0.488-0.275-0.896-0.963-0.898-1.524c-0.008-0.562,0.389-0.797,0.877-0.521
						c0.42,0.236,0.777,0.773,0.877,1.272c0.014,0.086,0.025,0.173,0.025,0.254C82.645,39.477,82.248,39.712,81.758,39.434z"/>
					<path fill="#DBC142" d="M77.232,19.262c-0.49-0.277-0.896-0.965-0.902-1.527s0.391-0.797,0.881-0.518
						c0.418,0.234,0.775,0.768,0.873,1.273c0.018,0.084,0.027,0.169,0.025,0.251C78.117,19.305,77.721,19.538,77.232,19.262z"/>
					<path fill="#DBC142" d="M92.801,49.795c-0.482-0.275-0.883-0.955-0.889-1.512c-0.006-0.559,0.385-0.787,0.869-0.514
						c0.414,0.232,0.77,0.763,0.865,1.258c0.018,0.088,0.027,0.169,0.027,0.251C93.68,49.833,93.287,50.063,92.801,49.795z"/>
					<path fill="#DBC142" d="M84.686,35.293c-0.877-0.496-1.604-1.729-1.615-2.736c-0.008-1.01,0.701-1.426,1.58-0.933
						c0.752,0.426,1.393,1.386,1.568,2.285c0.029,0.155,0.047,0.302,0.049,0.451C86.275,35.369,85.568,35.789,84.686,35.293z"/>
					<g>
						<polygon fill="#43A807" points="80.502,31.963 77.232,33.852 78.893,34.787 						"/>
						<polygon fill="#6FB709" points="80.502,31.963 77.232,33.852 78.273,34.438 						"/>
						<polygon fill="#6FB709" points="80.502,31.963 79.695,33.379 80.523,35.711 						"/>
						<polygon fill="#43A807" points="80.502,31.963 82.117,32.889 80.523,35.711 						"/>
					</g>
					<g>
						<polygon fill="#43A807" points="71.215,39.704 67.98,41.656 67.961,39.75 						"/>
						<polygon fill="#6FB709" points="71.215,39.704 67.98,41.656 67.969,40.461 						"/>
						<polygon fill="#6FB709" points="71.215,39.704 69.582,39.729 67.941,37.875 						"/>
						<polygon fill="#43A807" points="71.215,39.704 71.182,37.844 67.941,37.875 						"/>
					</g>
					<g>
						<polygon fill="#43A807" points="90.303,53.547 87.068,55.499 87.049,53.594 						"/>
						<polygon fill="#6FB709" points="90.303,53.547 87.068,55.499 87.059,54.305 						"/>
						<polygon fill="#6FB709" points="90.303,53.547 88.672,53.571 87.029,51.721 						"/>
						<polygon fill="#43A807" points="90.303,53.547 90.27,51.686 87.029,51.721 						"/>
					</g>
					<path fill="#F9F68A" d="M81.07,43.228c0.193-0.05,0.393,0.067,0.443,0.267l0.736,2.872c0.051,0.195-0.068,0.396-0.264,0.445
						l0,0c-0.197,0.051-0.398-0.067-0.447-0.265l-0.736-2.872C80.752,43.479,80.871,43.279,81.07,43.228L81.07,43.228z"/>
					<path fill="#F9F68A" d="M72.934,29.352c0.119-0.166,0.348-0.206,0.514-0.09l2.424,1.709c0.164,0.115,0.205,0.344,0.088,0.51
						l0,0c-0.115,0.164-0.346,0.205-0.51,0.089l-2.426-1.706C72.859,29.746,72.818,29.519,72.934,29.352L72.934,29.352z"/>
					<path fill="#F9F68A" d="M84.871,37.376c0.119-0.166,0.346-0.202,0.512-0.09l2.424,1.708c0.164,0.118,0.207,0.347,0.09,0.508
						l0,0c-0.115,0.168-0.346,0.207-0.512,0.092l-2.424-1.707C84.797,37.771,84.756,37.539,84.871,37.376L84.871,37.376z"/>
					<path fill="#F9F68A" d="M74.637,21.721c0.201-0.022,0.346-0.203,0.324-0.404l-0.324-2.946c-0.021-0.2-0.203-0.348-0.404-0.323
						l0,0c-0.203,0.021-0.344,0.201-0.324,0.403l0.326,2.947C74.254,21.598,74.436,21.743,74.637,21.721L74.637,21.721z"/>
					<path fill="#F9F68A" d="M73.492,46.016c0.203-0.023,0.348-0.203,0.326-0.406l-0.322-2.945
						c-0.023-0.201-0.205-0.348-0.406-0.326l0,0c-0.201,0.025-0.348,0.206-0.324,0.404l0.322,2.949
						C73.111,45.895,73.293,46.037,73.492,46.016L73.492,46.016z"/>
				</g>
			</g>
			<g>
				<g>
					<g>
						<path fill="#B77723" d="M52.338,38.075c-4.832,8.549-7.986,15.849,0.57,20.68l39.48,22.423
							c8.551,4.841,12.84,1.214,9.537-8.043L81.029,14.695c-3.289-9.265-9.959-9.82-14.777-1.274L52.338,38.075z"/>
					</g>
					<path fill="#D6BE45" d="M89.266,69.07l-39.48-22.421c-0.447-0.253-0.855-0.517-1.242-0.782c0.875-2.441,2.246-5.05,3.795-7.792
						l13.914-24.654c4.818-8.546,11.488-7.99,14.777,1.274l18.838,52.682C99.391,71.645,95.439,72.569,89.266,69.07z"/>
					<path fill="#DDA54A" d="M92.389,81.178l-39.48-22.423c-8.557-4.831-5.402-12.131-0.57-20.68l13.914-24.654
						c1.217-2.155,2.549-3.73,3.916-4.733c1.504,1.189,2.842,3.216,3.857,6.074l20.896,58.439c1.596,4.475,1.414,7.627-0.16,9.151
						C94.014,82.038,93.223,81.648,92.389,81.178z"/>
					<path fill="#EDB564" d="M52.908,58.755c-8.557-4.831-5.402-12.131-0.57-20.68l13.914-24.654
						c1.217-2.155,2.549-3.73,3.916-4.733"/>
					<path fill="#EDB564" d="M94.922,73.201c1.596,4.475,1.414,7.627-0.16,9.151"/>
					<path fill="#CC8F37" d="M66.252,13.421c1.217-2.155,2.549-3.73,3.916-4.733c1.504,1.189,2.842,3.216,3.857,6.074l20.896,58.439
						c1.596,4.475,1.414,7.627-0.16,9.151c-0.748-0.314-1.539-0.704-2.373-1.175"/>
					<path fill="#F2E26B" d="M89.266,69.07l-39.48-22.421c-0.447-0.253-0.855-0.517-1.242-0.782c0.875-2.441,2.246-5.05,3.795-7.792
						l13.914-24.654c1.217-2.155,2.549-3.73,3.916-4.733c1.504,1.189,2.842,3.216,3.857,6.074L94.15,71.045
						C92.738,70.758,91.102,70.109,89.266,69.07z"/>
					<path fill="#FFEB78" d="M49.785,46.649c-0.447-0.253-0.855-0.517-1.242-0.782c0.219-0.608,0.467-1.226,0.738-1.854
						c0.006-0.009,0.01-0.018,0.016-0.027c0.129-0.295,0.262-0.59,0.4-0.889c0.016-0.029,0.027-0.058,0.043-0.086
						c0.293-0.625,0.607-1.258,0.943-1.898c0.008-0.02,0.016-0.035,0.025-0.053c0.15-0.287,0.303-0.574,0.455-0.865
						c0.045-0.072,0.084-0.15,0.127-0.229c0.129-0.236,0.258-0.477,0.393-0.719c0.045-0.08,0.09-0.162,0.133-0.244
						c0.172-0.308,0.344-0.617,0.521-0.929l13.914-24.654c1.217-2.155,2.549-3.73,3.916-4.733L55.889,50.113L49.785,46.649z"/>
					<path fill="#E8D252" d="M66.252,13.421c1.217-2.155,2.549-3.73,3.916-4.733c1.504,1.189,2.842,3.216,3.857,6.074L94.15,71.045
						c-1.412-0.287-3.049-0.936-4.885-1.975"/>
					<g>
						<g>
							<path fill="#9E0707" d="M72.895,36.203l-5.145-8.709l0.734-0.436c0.006-0.002,0.012-0.006-0.139,0.082l0.078-0.045
								l0.16-0.083c0.637-0.329,1.494-0.271,2.441,0.265c1.98,1.118,3.617,3.89,3.641,6.164c0.01,1.09-0.352,1.867-0.947,2.266
								l-0.15,0.1L72.895,36.203z"/>
							<path fill="#8E0C0C" d="M71.025,27.277c1.98,1.118,3.617,3.89,3.641,6.164c0.01,1.09-0.352,1.867-0.947,2.266l-0.15,0.1
								l-0.674,0.396l-4.393-7.438L71.025,27.277z"/>
							<path fill="#FC0B0B" d="M70.434,35.939c-1.98-1.117-3.615-3.891-3.641-6.163c-0.021-2.275,1.58-3.222,3.562-2.104
								c1.979,1.119,3.615,3.892,3.639,6.166S72.416,37.057,70.434,35.939z"/>
							<path fill="#FF4200" d="M70.434,35.939c-1.98-1.117-3.615-3.891-3.641-6.163"/>
							<path fill="#E50707" d="M70.355,27.672c1.979,1.119,3.615,3.892,3.639,6.166s-1.578,3.219-3.561,2.102"/>
						</g>
					</g>
					<g>
						<g>
							<path fill="#9E0707" d="M55.045,45.76l-2.141-3.623l0.305-0.182c0.004-0.002,0.006-0.002-0.059,0.035l0.033-0.02l0.066-0.036
								c0.264-0.136,0.621-0.112,1.016,0.11c0.826,0.467,1.508,1.621,1.518,2.567c0.004,0.452-0.148,0.776-0.395,0.94l-0.064,0.043
								L55.045,45.76z"/>
							<path fill="#8E0C0C" d="M54.266,42.045c0.826,0.467,1.508,1.621,1.518,2.567c0.004,0.452-0.148,0.776-0.395,0.94
								l-0.064,0.043l-0.279,0.164l-1.828-3.096L54.266,42.045z"/>
							<path fill="#FC0B0B" d="M54.02,45.652c-0.822-0.465-1.504-1.619-1.516-2.567c-0.01-0.948,0.658-1.341,1.484-0.877
								c0.822,0.47,1.504,1.622,1.514,2.569C55.512,45.723,54.846,46.117,54.02,45.652z"/>
							<path fill="#FF4200" d="M54.02,45.652c-0.822-0.465-1.504-1.619-1.516-2.567"/>
							<path fill="#E50707" d="M53.988,42.208c0.822,0.47,1.504,1.622,1.514,2.569c0.01,0.945-0.656,1.34-1.482,0.875"/>
						</g>
					</g>
					<g>
						<g>
							<path fill="#9E0707" d="M86.418,65.094l-2.975-5.033l0.426-0.252c0-0.001,0.004-0.004-0.082,0.049l0.045-0.027l0.092-0.048
								c0.369-0.192,0.863-0.157,1.41,0.151c1.146,0.646,2.094,2.252,2.107,3.564c0.004,0.628-0.205,1.079-0.549,1.31l-0.086,0.058
								L86.418,65.094z"/>
							<path fill="#8E0C0C" d="M85.334,59.934c1.146,0.646,2.094,2.252,2.107,3.564c0.004,0.628-0.205,1.079-0.549,1.31
								l-0.086,0.058l-0.389,0.229l-2.541-4.297L85.334,59.934z"/>
							<path fill="#FC0B0B" d="M84.994,64.943c-1.145-0.646-2.09-2.253-2.105-3.566c-0.012-1.314,0.914-1.861,2.061-1.216
								c1.143,0.647,2.09,2.253,2.104,3.565C87.066,65.043,86.141,65.588,84.994,64.943z"/>
							<path fill="#FF4200" d="M84.994,64.943c-1.145-0.646-2.09-2.253-2.105-3.566"/>
							<path fill="#E50707" d="M84.949,60.161c1.143,0.647,2.09,2.253,2.104,3.565c0.014,1.316-0.912,1.861-2.059,1.217"/>
						</g>
					</g>
					<g>
						<g>
							<path fill="#9E0707" d="M75.396,54.98l-3.191-5.404l0.455-0.27c0.004-0.002,0.008-0.004-0.086,0.052l0.047-0.027l0.1-0.055
								c0.396-0.202,0.928-0.167,1.516,0.165c1.229,0.691,2.244,2.412,2.26,3.824c0.006,0.674-0.219,1.158-0.59,1.408l-0.094,0.061
								L75.396,54.98z"/>
							<path fill="#8E0C0C" d="M74.236,49.441c1.229,0.691,2.244,2.412,2.26,3.824c0.006,0.674-0.219,1.158-0.59,1.408l-0.094,0.061
								l-0.416,0.246l-2.727-4.615L74.236,49.441z"/>
							<path fill="#FC0B0B" d="M73.869,54.816c-1.229-0.695-2.246-2.416-2.258-3.823c-0.014-1.413,0.979-2.001,2.209-1.307
								c1.227,0.692,2.244,2.414,2.258,3.825C76.094,54.923,75.098,55.51,73.869,54.816z"/>
							<path fill="#FF4200" d="M73.869,54.816c-1.229-0.695-2.246-2.416-2.258-3.823"/>
							<path fill="#E50707" d="M73.82,49.687c1.227,0.692,2.244,2.414,2.258,3.825c0.016,1.411-0.98,1.998-2.209,1.305"/>
						</g>
					</g>
					<g>
						<g>
							<path fill="#9E0707" d="M64.559,43.852l-2.277-3.857l0.324-0.191c0.002-0.004,0.004-0.003-0.061,0.035l0.033-0.021
								l0.07-0.036c0.283-0.146,0.662-0.121,1.082,0.116c0.877,0.494,1.602,1.724,1.613,2.729c0.006,0.482-0.156,0.828-0.422,1.007
								l-0.064,0.044L64.559,43.852z"/>
							<path fill="#8E0C0C" d="M63.73,39.897c0.877,0.494,1.602,1.724,1.613,2.729c0.006,0.482-0.156,0.828-0.422,1.007
								l-0.064,0.044l-0.299,0.174l-1.943-3.295L63.73,39.897z"/>
							<path fill="#FC0B0B" d="M63.469,43.734c-0.877-0.494-1.604-1.723-1.613-2.73c-0.008-1.008,0.699-1.426,1.578-0.931
								c0.877,0.493,1.604,1.726,1.613,2.729C65.057,43.81,64.348,44.23,63.469,43.734z"/>
							<path fill="#FF4200" d="M63.469,43.734c-0.877-0.494-1.604-1.723-1.613-2.73"/>
							<path fill="#E50707" d="M63.434,40.073c0.877,0.493,1.604,1.726,1.613,2.729c0.01,1.007-0.699,1.428-1.578,0.932"/>
						</g>
					</g>
					<g>
						<g>
							<path fill="#9E0707" d="M66.174,51.908l-2.277-3.859l0.322-0.189c0.004,0,0.006-0.002-0.059,0.035l0.033-0.02l0.068-0.037
								c0.283-0.146,0.664-0.119,1.084,0.115c0.873,0.498,1.602,1.727,1.611,2.73c0.006,0.484-0.154,0.83-0.42,1.006l-0.064,0.043
								L66.174,51.908z"/>
							<path fill="#8E0C0C" d="M65.346,47.953c0.873,0.498,1.602,1.727,1.611,2.73c0.006,0.484-0.154,0.83-0.42,1.006l-0.064,0.043
								l-0.299,0.176l-1.945-3.293L65.346,47.953z"/>
							<path fill="#FC0B0B" d="M65.084,51.792c-0.877-0.493-1.604-1.724-1.613-2.731c-0.008-1.006,0.701-1.427,1.578-0.932
								c0.875,0.496,1.602,1.725,1.611,2.731C66.674,51.868,65.961,52.288,65.084,51.792z"/>
							<path fill="#FF4200" d="M65.084,51.792c-0.877-0.493-1.604-1.724-1.613-2.731"/>
							<path fill="#E50707" d="M65.049,48.129c0.875,0.496,1.602,1.725,1.611,2.731c0.014,1.008-0.699,1.428-1.576,0.932"/>
						</g>
					</g>
					<g>
						<g>
							<path fill="#9E0707" d="M81.098,49.506l-2.277-3.859l0.324-0.192c0.004-0.001,0.006-0.001-0.062,0.037l0.035-0.021
								l0.07-0.035c0.283-0.148,0.664-0.122,1.082,0.115c0.879,0.495,1.604,1.723,1.613,2.732c0.006,0.48-0.154,0.824-0.42,1.004
								l-0.066,0.042L81.098,49.506z"/>
							<path fill="#8E0C0C" d="M80.27,45.551c0.879,0.495,1.604,1.723,1.613,2.732c0.006,0.48-0.154,0.824-0.42,1.004l-0.066,0.042
								l-0.299,0.177l-1.943-3.295L80.27,45.551z"/>
							<path fill="#FC0B0B" d="M80.008,49.389c-0.877-0.496-1.604-1.724-1.613-2.731c-0.008-1.009,0.701-1.427,1.58-0.931
								c0.877,0.494,1.602,1.723,1.611,2.73C81.598,49.465,80.887,49.883,80.008,49.389z"/>
							<path fill="#FF4200" d="M80.008,49.389c-0.877-0.496-1.604-1.724-1.613-2.731"/>
							<path fill="#E50707" d="M79.975,45.727c0.877,0.494,1.602,1.723,1.611,2.73c0.012,1.008-0.699,1.426-1.578,0.932"/>
						</g>
					</g>
					<g>
						<g>
							<path fill="#9E0707" d="M62.188,29.672l1.492,2.525l-0.215,0.126c0,0-0.004,0.002,0.037-0.024l-0.02,0.015l-0.045,0.026
								c-0.188,0.092-0.43,0.073-0.707-0.078c-0.576-0.324-1.051-1.129-1.061-1.793c0.006-0.312,0.105-0.536,0.279-0.652l0.041-0.03
								L62.188,29.672z"/>
							<path fill="#8E0C0C" d="M62.73,32.262c-0.576-0.324-1.051-1.129-1.061-1.793c0.006-0.312,0.105-0.536,0.279-0.652l0.041-0.03
								l0.197-0.114l1.275,2.157L62.73,32.262z"/>
							<path fill="#FC0B0B" d="M62.902,29.742c0.576,0.332,1.051,1.135,1.057,1.795c0.002,0.658-0.459,0.932-1.037,0.611
								c-0.572-0.326-1.047-1.129-1.059-1.793C61.865,29.701,62.326,29.428,62.902,29.742z"/>
							<path fill="#FF4200" d="M62.902,29.742c0.576,0.332,1.051,1.135,1.057,1.795"/>
							<path fill="#E50707" d="M62.922,32.148c-0.572-0.326-1.047-1.129-1.059-1.793c0.002-0.654,0.463-0.928,1.039-0.613"/>
						</g>
					</g>
					<g>
						<g>
							<path fill="#9E0707" d="M68.637,15.613l1.49,2.528l-0.215,0.128c0,0-0.006,0.001,0.039-0.024l-0.023,0.013l-0.043,0.025
								c-0.186,0.095-0.43,0.075-0.707-0.08c-0.578-0.321-1.051-1.125-1.059-1.79c0.004-0.31,0.105-0.534,0.277-0.651l0.041-0.03
								L68.637,15.613z"/>
							<path fill="#8E0C0C" d="M69.178,18.203c-0.578-0.321-1.051-1.125-1.059-1.79c0.004-0.31,0.105-0.534,0.277-0.651l0.041-0.03
								l0.199-0.118l1.273,2.16L69.178,18.203z"/>
							<path fill="#FC0B0B" d="M69.348,15.688c0.576,0.329,1.051,1.131,1.057,1.792c0.004,0.659-0.455,0.932-1.035,0.611
								c-0.572-0.324-1.047-1.128-1.055-1.791C68.312,15.645,68.773,15.372,69.348,15.688z"/>
							<path fill="#FF4200" d="M69.348,15.688c0.576,0.329,1.051,1.131,1.057,1.792"/>
							<path fill="#E50707" d="M69.369,18.092c-0.572-0.324-1.047-1.128-1.055-1.791c-0.002-0.656,0.459-0.929,1.033-0.612"/>
						</g>
					</g>
					<path fill="#DBC142" d="M59.545,38.498c-1.1-0.619-2.008-2.157-2.02-3.416c-0.014-1.264,0.873-1.787,1.973-1.167
						c0.938,0.53,1.738,1.729,1.957,2.854c0.039,0.192,0.059,0.381,0.062,0.563C61.527,38.592,60.639,39.117,59.545,38.498z"/>
					<path fill="#DBC142" d="M70.74,45.795c-0.488-0.275-0.896-0.963-0.898-1.524c-0.008-0.562,0.389-0.797,0.879-0.521
						c0.418,0.236,0.775,0.773,0.875,1.272c0.014,0.086,0.025,0.173,0.025,0.254C71.627,45.838,71.23,46.073,70.74,45.795z"/>
					<path fill="#DBC142" d="M66.215,25.623c-0.49-0.277-0.896-0.965-0.902-1.526c-0.006-0.563,0.391-0.797,0.881-0.519
						c0.418,0.235,0.775,0.768,0.873,1.273c0.018,0.084,0.027,0.17,0.025,0.251C67.1,25.666,66.703,25.899,66.215,25.623z"/>
					<path fill="#DBC142" d="M81.783,56.156c-0.482-0.275-0.883-0.955-0.889-1.512c-0.006-0.559,0.385-0.787,0.869-0.514
						c0.416,0.232,0.77,0.764,0.865,1.258c0.018,0.088,0.027,0.17,0.029,0.251C82.662,56.195,82.27,56.426,81.783,56.156z"/>
					<path fill="#DBC142" d="M73.668,41.654c-0.877-0.496-1.604-1.727-1.615-2.736c-0.008-1.009,0.701-1.426,1.58-0.933
						c0.752,0.426,1.393,1.386,1.568,2.285c0.029,0.155,0.047,0.303,0.049,0.451C75.258,41.73,74.551,42.15,73.668,41.654z"/>
					<g>
						<polygon fill="#43A807" points="69.484,38.324 66.215,40.213 67.875,41.148 						"/>
						<polygon fill="#6FB709" points="69.484,38.324 66.215,40.213 67.256,40.8 						"/>
						<polygon fill="#6FB709" points="69.484,38.324 68.678,39.741 69.506,42.072 						"/>
						<polygon fill="#43A807" points="69.484,38.324 71.1,39.25 69.506,42.072 						"/>
					</g>
					<g>
						<polygon fill="#43A807" points="60.197,46.065 56.963,48.018 56.943,46.112 						"/>
						<polygon fill="#6FB709" points="60.197,46.065 56.963,48.018 56.951,46.822 						"/>
						<polygon fill="#6FB709" points="60.197,46.065 58.564,46.09 56.924,44.236 						"/>
						<polygon fill="#43A807" points="60.197,46.065 60.164,44.205 56.924,44.236 						"/>
					</g>
					<g>
						<polygon fill="#43A807" points="79.285,59.908 76.051,61.86 76.031,59.955 						"/>
						<polygon fill="#6FB709" points="79.285,59.908 76.051,61.86 76.041,60.666 						"/>
						<polygon fill="#6FB709" points="79.285,59.908 77.654,59.933 76.012,58.082 						"/>
						<polygon fill="#43A807" points="79.285,59.908 79.252,58.047 76.012,58.082 						"/>
					</g>
					<path fill="#F9F68A" d="M70.053,49.589c0.193-0.05,0.393,0.067,0.443,0.267l0.736,2.872c0.051,0.195-0.068,0.396-0.264,0.445
						l0,0c-0.197,0.051-0.398-0.067-0.447-0.265l-0.736-2.871C69.734,49.84,69.854,49.641,70.053,49.589L70.053,49.589z"/>
					<path fill="#F9F68A" d="M61.916,35.713c0.119-0.166,0.348-0.205,0.514-0.091l2.424,1.709c0.164,0.116,0.205,0.345,0.088,0.511
						l0,0c-0.115,0.165-0.344,0.205-0.51,0.09l-2.426-1.707C61.842,36.107,61.801,35.88,61.916,35.713L61.916,35.713z"/>
					<path fill="#F9F68A" d="M73.854,43.737c0.119-0.166,0.346-0.202,0.512-0.089l2.426,1.707c0.162,0.118,0.205,0.347,0.088,0.509
						l0,0c-0.115,0.167-0.346,0.206-0.512,0.091l-2.424-1.707C73.779,44.133,73.738,43.9,73.854,43.737L73.854,43.737z"/>
					<path fill="#F9F68A" d="M63.619,28.082c0.201-0.022,0.346-0.203,0.324-0.404l-0.324-2.946c-0.021-0.2-0.203-0.347-0.404-0.323
						l0,0c-0.203,0.021-0.344,0.201-0.324,0.403l0.326,2.947C63.236,27.959,63.418,28.104,63.619,28.082L63.619,28.082z"/>
					<path fill="#F9F68A" d="M62.475,52.377c0.203-0.023,0.348-0.203,0.326-0.406l-0.322-2.945
						c-0.023-0.201-0.205-0.348-0.406-0.326l0,0c-0.201,0.025-0.348,0.206-0.324,0.404l0.322,2.949
						C62.094,52.256,62.275,52.398,62.475,52.377L62.475,52.377z"/>
				</g>
			</g>
			<g>
				<g>
					<path fill="#525E50" d="M95.072,100.395l2.457-1.416c0.293-0.173,0.562-0.202,0.773-0.117l0.004-0.006l0.043,0.023
						c0.025,0.01,0.053,0.025,0.074,0.043l1.199,0.676l-0.873,1.498v6.809c0,0.781-0.547,1.738-1.221,2.128l-1.262,0.728
						l-0.848,1.457l-1.211-0.687l0,0c-0.223-0.13-0.361-0.401-0.361-0.791v-8.221C93.848,101.738,94.398,100.784,95.072,100.395z"/>
					<path fill="#4C544B" d="M95.363,104.979v7.207l-1.154-0.655c-0.223-0.13-0.361-0.401-0.361-0.791v-8.221
						c0-0.255,0.059-0.526,0.162-0.792l2.43,1.402L95.363,104.979z"/>
					<path fill="#444C42" d="M98.766,99.686l-2.451,1.417c-0.678,0.39-1.227,1.348-1.227,2.125v8.22
						c0,0.777,0.549,1.099,1.227,0.709l2.451-1.417c0.68-0.388,1.227-1.346,1.227-2.122v-8.223
						C99.992,99.617,99.445,99.298,98.766,99.686z"/>
					<path fill="#3B4439" d="M99.992,100.395c0-0.777-0.547-1.097-1.227-0.709l-2.451,1.417c-0.678,0.39-1.227,1.348-1.227,2.125
						v8.22"/>
					<path fill="#525E50" d="M98.584,100.607l-2.088,1.206c-0.58,0.334-1.047,1.148-1.047,1.812v7.006
						c0,0.662,0.467,0.936,1.047,0.604l2.088-1.207c0.578-0.331,1.045-1.146,1.045-1.807v-7.011
						C99.629,100.549,99.162,100.277,98.584,100.607z"/>
					<path fill="#79BDE2" d="M96.189,111.025l2.088-1.207c0.58-0.33,1.047-1.146,1.047-1.809v-7.009
						c0-0.218-0.053-0.393-0.143-0.519c-0.17-0.04-0.375-0.002-0.598,0.125l-2.088,1.206c-0.58,0.334-1.047,1.148-1.047,1.812v7.006
						c0,0.219,0.055,0.395,0.143,0.521C95.762,111.19,95.967,111.154,96.189,111.025z"/>
				</g>
				<path fill="#89D5F7" d="M95.449,107.955l3.875-6.337v-0.617c0-0.218-0.053-0.393-0.143-0.519
					c-0.17-0.04-0.375-0.002-0.598,0.125l-1.486,0.858l-1.648,2.696V107.955z"/>
				<polygon fill="#89D5F7" points="95.449,110.531 99.324,104.192 99.324,103 95.449,109.338 				"/>
				<path fill="#89D5F7" d="M99.324,108.01v-0.865l-1.955,3.201l0.908-0.527c0.086-0.049,0.168-0.109,0.248-0.178l0.742-1.213
					C99.303,108.285,99.324,108.145,99.324,108.01z"/>
				<path fill="#89D5F7" d="M99.324,104.969l-3.756,6.145c0.008,0.012,0.016,0.026,0.023,0.039c0.074,0.018,0.158,0.02,0.246,0.005
					l3.486-5.706V104.969z"/>
			</g>
			<g>
				<g>
					<path fill="#525E50" d="M102.594,96.053l2.457-1.418c0.293-0.172,0.562-0.2,0.773-0.115l0.004-0.008l0.043,0.025
						c0.025,0.008,0.053,0.023,0.074,0.043l1.199,0.675l-0.873,1.498v6.81c0,0.78-0.547,1.737-1.221,2.128l-1.262,0.726
						l-0.848,1.457l-1.211-0.686l0,0c-0.223-0.129-0.361-0.401-0.361-0.791v-8.221C101.369,97.396,101.92,96.441,102.594,96.053z"/>
					<path fill="#4C544B" d="M102.885,100.637v7.207l-1.154-0.656c-0.223-0.129-0.361-0.401-0.361-0.791v-8.221
						c0-0.254,0.059-0.525,0.164-0.791l2.428,1.4L102.885,100.637z"/>
					<path fill="#444C42" d="M106.287,95.342l-2.451,1.418c-0.678,0.391-1.227,1.348-1.227,2.125v8.22
						c0,0.777,0.549,1.099,1.227,0.709l2.451-1.417c0.68-0.388,1.227-1.344,1.227-2.122v-8.222
						C107.514,95.275,106.967,94.955,106.287,95.342z"/>
					<path fill="#3B4439" d="M107.514,96.053c0-0.777-0.547-1.098-1.227-0.711l-2.451,1.418c-0.678,0.391-1.227,1.348-1.227,2.125
						v8.22"/>
					<path fill="#525E50" d="M106.105,96.265l-2.088,1.206c-0.58,0.334-1.045,1.148-1.045,1.812v7.004
						c0,0.662,0.465,0.938,1.045,0.605l2.088-1.207c0.578-0.332,1.045-1.147,1.045-1.81v-7.009
						C107.15,96.205,106.684,95.936,106.105,96.265z"/>
					<path fill="#79BDE2" d="M103.711,106.684l2.088-1.208c0.58-0.331,1.047-1.147,1.047-1.808v-7.01
						c0-0.219-0.053-0.393-0.143-0.52c-0.168-0.039-0.375-0.002-0.598,0.126l-2.088,1.206c-0.58,0.334-1.045,1.148-1.045,1.812
						v7.004c0,0.221,0.053,0.396,0.141,0.523C103.283,106.848,103.488,106.811,103.711,106.684z"/>
				</g>
				<path fill="#89D5F7" d="M102.973,103.613l3.873-6.338v-0.617c0-0.219-0.053-0.393-0.143-0.52
					c-0.168-0.039-0.375-0.002-0.598,0.126l-1.486,0.858l-1.646,2.696V103.613z"/>
				<polygon fill="#89D5F7" points="102.973,106.188 106.846,99.851 106.846,98.658 102.973,104.996 				"/>
				<path fill="#89D5F7" d="M106.846,103.668v-0.865l-1.955,3.199l0.908-0.526c0.086-0.048,0.168-0.108,0.248-0.178l0.742-1.214
					C106.826,103.941,106.846,103.801,106.846,103.668z"/>
				<path fill="#89D5F7" d="M106.846,100.627l-3.756,6.143c0.01,0.014,0.016,0.027,0.023,0.041c0.074,0.016,0.158,0.018,0.246,0.004
					l3.486-5.707V100.627z"/>
			</g>
			<g>
				<g>
					<path fill="#525E50" d="M110.115,91.709l2.457-1.417c0.293-0.173,0.562-0.2,0.773-0.116l0.004-0.007l0.043,0.024
						c0.025,0.009,0.053,0.025,0.074,0.043l1.199,0.677l-0.873,1.497v6.811c0,0.78-0.547,1.736-1.221,2.127l-1.262,0.727
						l-0.848,1.456l-1.211-0.685l0,0c-0.223-0.13-0.361-0.402-0.361-0.791v-8.222C108.891,93.053,109.441,92.099,110.115,91.709z"/>
					<path fill="#4C544B" d="M110.406,96.293v7.207l-1.154-0.654c-0.223-0.13-0.361-0.402-0.361-0.791v-8.222
						c0-0.255,0.059-0.526,0.164-0.792l2.428,1.402L110.406,96.293z"/>
					<path fill="#444C42" d="M113.809,90.999l-2.451,1.418c-0.678,0.39-1.227,1.347-1.227,2.124v8.221
						c0,0.778,0.549,1.1,1.227,0.709l2.451-1.416c0.68-0.389,1.227-1.346,1.227-2.123v-8.223
						C115.035,90.932,114.488,90.612,113.809,90.999z"/>
					<path fill="#3B4439" d="M115.035,91.709c0-0.777-0.547-1.097-1.227-0.71l-2.451,1.418c-0.678,0.39-1.227,1.347-1.227,2.124
						v8.221"/>
					<path fill="#525E50" d="M113.627,91.922l-2.088,1.207c-0.58,0.332-1.045,1.148-1.045,1.811v7.006
						c0,0.662,0.465,0.936,1.045,0.605l2.088-1.209c0.578-0.33,1.047-1.146,1.047-1.809v-7.008
						C114.674,91.863,114.205,91.592,113.627,91.922z"/>
					<path fill="#79BDE2" d="M111.232,102.34l2.088-1.207c0.58-0.33,1.047-1.146,1.047-1.809v-7.008
						c0-0.219-0.053-0.395-0.141-0.521c-0.17-0.038-0.377-0.002-0.6,0.126l-2.088,1.207c-0.58,0.332-1.045,1.148-1.045,1.811v7.006
						c0,0.22,0.053,0.395,0.141,0.523C110.805,102.506,111.01,102.469,111.232,102.34z"/>
				</g>
				<path fill="#89D5F7" d="M110.494,99.27l3.873-6.336v-0.617c0-0.219-0.053-0.395-0.141-0.521c-0.17-0.038-0.377-0.002-0.6,0.126
					l-1.486,0.859l-1.646,2.696V99.27z"/>
				<polygon fill="#89D5F7" points="110.494,101.846 114.367,95.508 114.367,94.315 110.494,100.653 				"/>
				<path fill="#89D5F7" d="M114.367,99.324v-0.865l-1.955,3.199l0.908-0.525c0.086-0.049,0.168-0.109,0.248-0.178l0.742-1.214
					C114.348,99.6,114.367,99.458,114.367,99.324z"/>
				<path fill="#89D5F7" d="M114.367,96.284l-3.756,6.144c0.01,0.013,0.016,0.025,0.023,0.041c0.076,0.015,0.158,0.017,0.246,0.002
					l3.486-5.705V96.284z"/>
			</g>
			<g>
				<g>
					<g>
						<path fill="#B77723" d="M41.32,44.437c-4.832,8.549-7.986,15.849,0.57,20.68l39.48,22.423
							c8.551,4.841,12.84,1.214,9.537-8.043L70.012,21.057c-3.289-9.264-9.959-9.82-14.777-1.273L41.32,44.437z"/>
					</g>
					<path fill="#D6BE45" d="M78.248,75.432l-39.48-22.42c-0.447-0.254-0.855-0.518-1.242-0.783
						c0.875-2.441,2.246-5.049,3.795-7.792l13.914-24.653c4.818-8.547,11.488-7.99,14.777,1.273l18.84,52.682
						C88.373,78.006,84.422,78.931,78.248,75.432z"/>
					<path fill="#DDA54A" d="M81.371,87.539l-39.48-22.423c-8.557-4.831-5.402-12.131-0.57-20.68l13.914-24.653
						c1.217-2.156,2.549-3.73,3.916-4.734c1.504,1.189,2.842,3.216,3.857,6.074l20.896,58.439c1.596,4.475,1.414,7.627-0.16,9.152
						C82.996,88.399,82.205,88.012,81.371,87.539z"/>
					<path fill="#EDB564" d="M41.891,65.116c-8.557-4.831-5.402-12.131-0.57-20.68l13.914-24.653
						c1.217-2.156,2.549-3.73,3.916-4.734"/>
					<path fill="#EDB564" d="M83.904,79.562c1.596,4.475,1.414,7.627-0.16,9.152"/>
					<path fill="#CC8F37" d="M55.234,19.783c1.217-2.156,2.549-3.73,3.916-4.734c1.504,1.189,2.842,3.216,3.857,6.074l20.896,58.439
						c1.596,4.475,1.414,7.627-0.16,9.152c-0.748-0.315-1.539-0.703-2.373-1.176"/>
					<path fill="#F2E26B" d="M78.248,75.432l-39.48-22.42c-0.447-0.254-0.855-0.518-1.242-0.783
						c0.875-2.441,2.246-5.049,3.795-7.792l13.914-24.653c1.217-2.156,2.549-3.73,3.916-4.734c1.504,1.189,2.842,3.216,3.857,6.074
						l20.125,56.283C81.721,77.119,80.084,76.472,78.248,75.432z"/>
					<path fill="#FFEB78" d="M38.768,53.012c-0.447-0.254-0.855-0.518-1.242-0.783c0.219-0.607,0.467-1.226,0.738-1.854
						c0.006-0.009,0.01-0.018,0.016-0.027c0.129-0.295,0.262-0.59,0.4-0.889c0.016-0.028,0.027-0.058,0.043-0.086
						c0.293-0.625,0.607-1.258,0.943-1.898c0.008-0.02,0.016-0.035,0.025-0.053c0.15-0.287,0.303-0.574,0.457-0.865
						c0.043-0.072,0.082-0.15,0.125-0.229c0.129-0.236,0.258-0.477,0.393-0.719c0.045-0.08,0.09-0.162,0.133-0.244
						c0.172-0.308,0.344-0.617,0.521-0.929l13.914-24.653c1.217-2.156,2.549-3.73,3.916-4.734L44.871,56.475L38.768,53.012z"/>
					<path fill="#E8D252" d="M55.234,19.783c1.217-2.156,2.549-3.73,3.916-4.734c1.504,1.189,2.842,3.216,3.857,6.074l20.125,56.283
						c-1.412-0.287-3.049-0.935-4.885-1.975"/>
					<g>
						<g>
							<path fill="#9E0707" d="M61.877,42.564l-5.145-8.709l0.734-0.436c0.008-0.002,0.012-0.006-0.139,0.083l0.078-0.047
								l0.16-0.081c0.637-0.33,1.494-0.271,2.441,0.264c1.98,1.118,3.617,3.89,3.641,6.164c0.01,1.09-0.352,1.867-0.947,2.266
								l-0.15,0.1L61.877,42.564z"/>
							<path fill="#8E0C0C" d="M60.008,33.639c1.98,1.118,3.617,3.89,3.641,6.164c0.01,1.09-0.352,1.867-0.947,2.266l-0.15,0.1
								l-0.674,0.396l-4.393-7.438L60.008,33.639z"/>
							<path fill="#FC0B0B" d="M59.416,42.301c-1.98-1.117-3.615-3.891-3.641-6.162c-0.021-2.276,1.58-3.224,3.562-2.105
								c1.979,1.119,3.615,3.892,3.639,6.166S61.398,43.418,59.416,42.301z"/>
							<path fill="#FF4200" d="M59.416,42.301c-1.98-1.117-3.615-3.891-3.641-6.162"/>
							<path fill="#E50707" d="M59.338,34.033c1.979,1.119,3.615,3.892,3.639,6.166s-1.578,3.219-3.561,2.102"/>
						</g>
					</g>
					<g>
						<g>
							<path fill="#9E0707" d="M44.027,52.121l-2.141-3.623l0.305-0.182c0.004-0.001,0.006-0.001-0.059,0.035l0.033-0.019
								l0.066-0.037c0.264-0.136,0.621-0.112,1.016,0.11c0.826,0.466,1.508,1.621,1.518,2.568c0.004,0.451-0.148,0.775-0.395,0.939
								l-0.064,0.043L44.027,52.121z"/>
							<path fill="#8E0C0C" d="M43.248,48.406c0.826,0.466,1.508,1.621,1.518,2.568c0.004,0.451-0.148,0.775-0.395,0.939
								l-0.064,0.043l-0.279,0.164l-1.828-3.096L43.248,48.406z"/>
							<path fill="#FC0B0B" d="M43.002,52.014c-0.822-0.465-1.504-1.619-1.516-2.567c-0.01-0.948,0.658-1.341,1.484-0.877
								c0.822,0.469,1.504,1.622,1.514,2.569C44.494,52.085,43.828,52.479,43.002,52.014z"/>
							<path fill="#FF4200" d="M43.002,52.014c-0.822-0.465-1.504-1.619-1.516-2.567"/>
							<path fill="#E50707" d="M42.971,48.569c0.822,0.469,1.504,1.622,1.514,2.569c0.01,0.946-0.656,1.34-1.482,0.875"/>
						</g>
					</g>
					<g>
						<g>
							<path fill="#9E0707" d="M75.4,71.455l-2.975-5.033l0.426-0.252c0.002-0.001,0.004-0.004-0.082,0.049l0.045-0.027l0.092-0.048
								c0.369-0.192,0.863-0.157,1.41,0.152c1.146,0.646,2.094,2.251,2.107,3.563c0.004,0.628-0.205,1.079-0.549,1.31l-0.086,0.058
								L75.4,71.455z"/>
							<path fill="#8E0C0C" d="M74.316,66.296c1.146,0.646,2.094,2.251,2.107,3.563c0.004,0.628-0.205,1.079-0.549,1.31
								l-0.086,0.058L75.4,71.455l-2.541-4.297L74.316,66.296z"/>
							<path fill="#FC0B0B" d="M73.977,71.305c-1.145-0.646-2.09-2.252-2.105-3.566c-0.012-1.314,0.914-1.861,2.061-1.216
								c1.143,0.647,2.09,2.253,2.104,3.565C76.049,71.404,75.123,71.949,73.977,71.305z"/>
							<path fill="#FF4200" d="M73.977,71.305c-1.145-0.646-2.09-2.252-2.105-3.566"/>
							<path fill="#E50707" d="M73.932,66.522c1.143,0.647,2.09,2.253,2.104,3.565c0.014,1.316-0.912,1.861-2.059,1.217"/>
						</g>
					</g>
					<g>
						<g>
							<path fill="#9E0707" d="M64.379,61.342l-3.191-5.404l0.455-0.27c0.004-0.002,0.008-0.004-0.086,0.053l0.047-0.028l0.1-0.054
								c0.396-0.203,0.928-0.168,1.516,0.164c1.229,0.691,2.244,2.412,2.26,3.824c0.006,0.674-0.219,1.158-0.59,1.408l-0.094,0.061
								L64.379,61.342z"/>
							<path fill="#8E0C0C" d="M63.219,55.803c1.229,0.691,2.244,2.412,2.26,3.824c0.006,0.674-0.219,1.158-0.59,1.408l-0.094,0.061
								l-0.416,0.246l-2.727-4.615L63.219,55.803z"/>
							<path fill="#FC0B0B" d="M62.852,61.178c-1.229-0.695-2.244-2.416-2.258-3.823c-0.014-1.413,0.979-2.001,2.209-1.307
								c1.227,0.692,2.244,2.414,2.258,3.825C65.076,61.284,64.08,61.872,62.852,61.178z"/>
							<path fill="#FF4200" d="M62.852,61.178c-1.229-0.695-2.244-2.416-2.258-3.823"/>
							<path fill="#E50707" d="M62.803,56.048c1.227,0.692,2.244,2.414,2.258,3.825c0.016,1.411-0.98,1.999-2.209,1.305"/>
						</g>
					</g>
					<g>
						<g>
							<path fill="#9E0707" d="M53.541,50.213l-2.277-3.857l0.324-0.192c0.002-0.003,0.004-0.002-0.061,0.036l0.033-0.02l0.07-0.037
								c0.283-0.146,0.662-0.121,1.082,0.116c0.877,0.495,1.602,1.724,1.613,2.729c0.006,0.482-0.156,0.828-0.422,1.007
								l-0.064,0.043L53.541,50.213z"/>
							<path fill="#8E0C0C" d="M52.713,46.259c0.877,0.495,1.602,1.724,1.613,2.729c0.006,0.482-0.156,0.828-0.422,1.007
								l-0.064,0.043l-0.299,0.175l-1.943-3.295L52.713,46.259z"/>
							<path fill="#FC0B0B" d="M52.451,50.096c-0.877-0.494-1.604-1.723-1.613-2.73c-0.008-1.008,0.699-1.426,1.578-0.93
								c0.877,0.492,1.604,1.725,1.613,2.729C54.039,50.171,53.33,50.592,52.451,50.096z"/>
							<path fill="#FF4200" d="M52.451,50.096c-0.877-0.494-1.604-1.723-1.613-2.73"/>
							<path fill="#E50707" d="M52.416,46.436c0.877,0.492,1.604,1.725,1.613,2.729c0.01,1.006-0.699,1.427-1.578,0.931"/>
						</g>
					</g>
					<g>
						<g>
							<path fill="#9E0707" d="M55.156,58.27l-2.277-3.859l0.322-0.189c0.004,0,0.006-0.002-0.059,0.035l0.033-0.02l0.068-0.037
								c0.283-0.146,0.664-0.119,1.084,0.115c0.873,0.498,1.602,1.727,1.611,2.73c0.006,0.484-0.154,0.83-0.42,1.006l-0.064,0.043
								L55.156,58.27z"/>
							<path fill="#8E0C0C" d="M54.328,54.314c0.873,0.498,1.602,1.727,1.611,2.73c0.006,0.484-0.154,0.83-0.42,1.006l-0.064,0.043
								l-0.299,0.176l-1.945-3.293L54.328,54.314z"/>
							<path fill="#FC0B0B" d="M54.066,58.153c-0.877-0.493-1.604-1.724-1.613-2.731c-0.008-1.006,0.701-1.427,1.578-0.932
								c0.877,0.497,1.602,1.725,1.611,2.731C55.656,58.23,54.943,58.649,54.066,58.153z"/>
							<path fill="#FF4200" d="M54.066,58.153c-0.877-0.493-1.604-1.724-1.613-2.731"/>
							<path fill="#E50707" d="M54.031,54.49c0.877,0.497,1.602,1.725,1.611,2.731c0.014,1.009-0.699,1.428-1.576,0.932"/>
						</g>
					</g>
					<g>
						<g>
							<path fill="#9E0707" d="M70.08,55.867l-2.277-3.859l0.324-0.192c0.004-0.001,0.006-0.001-0.061,0.037l0.035-0.021
								l0.068-0.035c0.283-0.148,0.666-0.122,1.082,0.115c0.879,0.496,1.604,1.723,1.613,2.732c0.006,0.48-0.154,0.824-0.42,1.004
								l-0.066,0.043L70.08,55.867z"/>
							<path fill="#8E0C0C" d="M69.252,51.912c0.879,0.496,1.604,1.723,1.613,2.732c0.006,0.48-0.154,0.824-0.42,1.004l-0.066,0.043
								l-0.299,0.176l-1.943-3.295L69.252,51.912z"/>
							<path fill="#FC0B0B" d="M68.99,55.75c-0.877-0.496-1.604-1.723-1.613-2.731c-0.008-1.009,0.701-1.427,1.58-0.931
								c0.877,0.494,1.602,1.723,1.611,2.731C70.58,55.826,69.869,56.244,68.99,55.75z"/>
							<path fill="#FF4200" d="M68.99,55.75c-0.877-0.496-1.604-1.723-1.613-2.731"/>
							<path fill="#E50707" d="M68.957,52.088c0.877,0.494,1.602,1.723,1.611,2.731c0.012,1.007-0.699,1.425-1.578,0.931"/>
						</g>
					</g>
					<g>
						<g>
							<path fill="#9E0707" d="M51.17,36.033l1.492,2.525l-0.215,0.126c0,0-0.004,0.002,0.037-0.023l-0.02,0.014l-0.043,0.026
								c-0.189,0.093-0.432,0.073-0.709-0.078c-0.574-0.324-1.051-1.129-1.061-1.793c0.006-0.312,0.105-0.535,0.279-0.652
								l0.041-0.03L51.17,36.033z"/>
							<path fill="#8E0C0C" d="M51.713,38.623c-0.574-0.324-1.051-1.129-1.061-1.793c0.006-0.312,0.105-0.535,0.279-0.652
								l0.041-0.03l0.197-0.114l1.275,2.157L51.713,38.623z"/>
							<path fill="#FC0B0B" d="M51.885,36.104c0.576,0.331,1.051,1.134,1.057,1.794c0.002,0.658-0.459,0.931-1.037,0.613
								c-0.572-0.328-1.047-1.131-1.059-1.795C50.848,36.062,51.309,35.789,51.885,36.104z"/>
							<path fill="#FF4200" d="M51.885,36.104c0.576,0.331,1.051,1.134,1.057,1.794"/>
							<path fill="#E50707" d="M51.904,38.512c-0.572-0.328-1.047-1.131-1.059-1.795c0.002-0.654,0.463-0.928,1.039-0.612"/>
						</g>
					</g>
					<g>
						<g>
							<path fill="#9E0707" d="M57.619,21.975l1.49,2.528l-0.215,0.128c0,0-0.006,0.002,0.039-0.024l-0.023,0.013l-0.043,0.025
								c-0.186,0.095-0.43,0.076-0.707-0.079c-0.578-0.322-1.051-1.126-1.059-1.791c0.004-0.31,0.105-0.534,0.277-0.652l0.041-0.029
								L57.619,21.975z"/>
							<path fill="#8E0C0C" d="M58.16,24.565c-0.578-0.322-1.051-1.126-1.059-1.791c0.004-0.31,0.105-0.534,0.277-0.652l0.041-0.029
								l0.199-0.118l1.273,2.16L58.16,24.565z"/>
							<path fill="#FC0B0B" d="M58.33,22.05c0.576,0.33,1.051,1.132,1.057,1.792c0.004,0.659-0.455,0.932-1.035,0.611
								c-0.572-0.324-1.047-1.128-1.055-1.791C57.295,22.006,57.756,21.733,58.33,22.05z"/>
							<path fill="#FF4200" d="M58.33,22.05c0.576,0.33,1.051,1.132,1.057,1.792"/>
							<path fill="#E50707" d="M58.352,24.453c-0.572-0.324-1.047-1.128-1.055-1.791c-0.002-0.656,0.459-0.929,1.033-0.612"/>
						</g>
					</g>
					<path fill="#DBC142" d="M48.527,44.859c-1.1-0.619-2.008-2.157-2.02-3.416c-0.014-1.264,0.873-1.787,1.973-1.166
						c0.938,0.529,1.738,1.729,1.959,2.854c0.037,0.192,0.057,0.381,0.061,0.563C50.51,44.953,49.621,45.479,48.527,44.859z"/>
					<path fill="#DBC142" d="M59.723,52.156c-0.488-0.274-0.895-0.963-0.898-1.524c-0.008-0.562,0.389-0.797,0.879-0.521
						c0.418,0.236,0.775,0.773,0.875,1.272c0.014,0.087,0.025,0.173,0.025,0.255C60.609,52.2,60.213,52.435,59.723,52.156z"/>
					<path fill="#DBC142" d="M55.197,31.984c-0.49-0.277-0.896-0.965-0.902-1.526c-0.006-0.563,0.391-0.797,0.881-0.519
						c0.418,0.235,0.775,0.768,0.873,1.273c0.018,0.084,0.027,0.17,0.027,0.251C56.082,32.027,55.688,32.262,55.197,31.984z"/>
					<path fill="#DBC142" d="M70.766,62.518c-0.482-0.274-0.883-0.955-0.889-1.512c-0.006-0.559,0.385-0.787,0.869-0.514
						c0.416,0.232,0.77,0.764,0.865,1.258c0.018,0.088,0.027,0.17,0.029,0.251C71.645,62.557,71.252,62.787,70.766,62.518z"/>
					<path fill="#DBC142" d="M62.65,48.016c-0.875-0.496-1.604-1.728-1.615-2.736c-0.008-1.009,0.701-1.426,1.58-0.932
						c0.752,0.425,1.393,1.385,1.568,2.284c0.029,0.155,0.047,0.303,0.049,0.451C64.24,48.092,63.533,48.512,62.65,48.016z"/>
					<g>
						<polygon fill="#43A807" points="58.467,44.686 55.197,46.574 56.857,47.51 						"/>
						<polygon fill="#6FB709" points="58.467,44.686 55.197,46.574 56.238,47.161 						"/>
						<polygon fill="#6FB709" points="58.467,44.686 57.66,46.103 58.488,48.434 						"/>
						<polygon fill="#43A807" points="58.467,44.686 60.082,45.611 58.488,48.434 						"/>
					</g>
					<g>
						<polygon fill="#43A807" points="49.18,52.428 45.945,54.379 45.926,52.474 						"/>
						<polygon fill="#6FB709" points="49.18,52.428 45.945,54.379 45.934,53.184 						"/>
						<polygon fill="#6FB709" points="49.18,52.428 47.547,52.451 45.906,50.599 						"/>
						<polygon fill="#43A807" points="49.18,52.428 49.146,50.566 45.906,50.599 						"/>
					</g>
					<g>
						<polygon fill="#43A807" points="68.268,66.27 65.033,68.222 65.014,66.316 						"/>
						<polygon fill="#6FB709" points="68.268,66.27 65.033,68.222 65.023,67.027 						"/>
						<polygon fill="#6FB709" points="68.268,66.27 66.637,66.294 64.996,64.443 						"/>
						<polygon fill="#43A807" points="68.268,66.27 68.234,64.408 64.996,64.443 						"/>
					</g>
					<path fill="#F9F68A" d="M59.035,55.95c0.193-0.05,0.393,0.067,0.443,0.267l0.736,2.872c0.051,0.195-0.068,0.396-0.264,0.445
						l0,0c-0.197,0.051-0.398-0.067-0.447-0.265l-0.736-2.871C58.717,56.201,58.836,56.002,59.035,55.95L59.035,55.95z"/>
					<path fill="#F9F68A" d="M50.9,42.074c0.117-0.165,0.346-0.205,0.512-0.09l2.424,1.708c0.164,0.116,0.205,0.345,0.088,0.511l0,0
						c-0.115,0.165-0.344,0.205-0.51,0.09l-2.426-1.707C50.824,42.469,50.785,42.241,50.9,42.074L50.9,42.074z"/>
					<path fill="#F9F68A" d="M62.836,50.099c0.119-0.166,0.346-0.202,0.514-0.089l2.424,1.707c0.162,0.118,0.205,0.347,0.088,0.509
						l0,0c-0.115,0.167-0.344,0.206-0.512,0.091l-2.424-1.707C62.762,50.494,62.721,50.262,62.836,50.099L62.836,50.099z"/>
					<path fill="#F9F68A" d="M52.602,34.443c0.201-0.022,0.346-0.203,0.324-0.404l-0.324-2.946c-0.021-0.2-0.203-0.347-0.404-0.323
						l0,0c-0.203,0.021-0.344,0.201-0.324,0.403l0.326,2.947C52.219,34.32,52.4,34.466,52.602,34.443L52.602,34.443z"/>
					<path fill="#F9F68A" d="M51.457,58.739c0.203-0.024,0.348-0.204,0.326-0.407l-0.322-2.945
						c-0.023-0.201-0.205-0.348-0.406-0.326l0,0c-0.201,0.025-0.348,0.206-0.324,0.404l0.322,2.949
						C51.076,58.617,51.258,58.76,51.457,58.739L51.457,58.739z"/>
				</g>
			</g>
		</g>
		<g>
			<g>
				<g>
					<g>
						<polygon fill="#075399" points="17.746,73.627 25.088,77.861 25.088,86.327 17.746,82.092 						"/>
						<polyline fill="#087FBA" points="25.088,77.861 25.088,86.327 17.746,82.092 						"/>
						<polygon fill="#73E5FF" points="18.941,81.428 25.088,84.98 25.088,77.861 18.941,74.314 						"/>
						<polyline fill="#29CDFF" points="25.088,84.98 25.088,77.861 18.941,74.314 						"/>
						<polygon fill="#087FBA" points="18.523,77.385 18.523,78.409 25.088,82.201 25.088,81.168 						"/>
					</g>
				</g>
			</g>
		</g>
		<g>
			<g>
				<g>
					<g>
						<polygon fill="#075399" points="31.924,81.766 39.264,85.994 39.264,94.48 31.924,90.231 						"/>
						<polyline fill="#087FBA" points="39.264,85.994 39.264,94.48 31.924,90.231 						"/>
						<polygon fill="#73E5FF" points="33.111,89.572 39.264,93.116 39.264,85.994 33.111,82.454 						"/>
						<polyline fill="#29CDFF" points="39.264,93.116 39.264,85.994 33.111,82.454 						"/>
						<polygon fill="#087FBA" points="32.701,85.524 32.701,86.553 39.264,90.34 39.264,89.316 						"/>
					</g>
				</g>
			</g>
		</g>
		<g>
			<g>
				<g>
					<g>
						<polygon fill="#075399" points="46.096,89.904 53.439,94.14 53.439,102.611 46.096,98.377 						"/>
						<polyline fill="#087FBA" points="53.439,94.14 53.439,102.611 46.096,98.377 						"/>
						<polygon fill="#73E5FF" points="47.293,97.714 53.439,101.264 53.439,94.14 47.293,90.596 						"/>
						<polyline fill="#29CDFF" points="53.439,101.264 53.439,94.14 47.293,90.596 						"/>
						<polygon fill="#087FBA" points="46.875,93.67 46.875,94.686 53.439,98.482 53.439,97.455 						"/>
					</g>
				</g>
			</g>
		</g>
		<g>
			<g>
				<g>
					<g>
						<polygon fill="#075399" points="60.279,98.049 67.621,102.287 67.621,110.75 60.279,106.522 						"/>
						<polyline fill="#087FBA" points="67.621,102.287 67.621,110.75 60.279,106.522 						"/>
						<polygon fill="#73E5FF" points="61.475,105.854 67.621,109.408 67.621,102.287 61.475,98.727 						"/>
						<polyline fill="#29CDFF" points="67.621,109.408 67.621,102.287 61.475,98.727 						"/>
						<polygon fill="#087FBA" points="61.057,101.809 61.057,102.83 67.621,106.621 67.621,105.594 						"/>
					</g>
				</g>
			</g>
		</g>
	</g>
	<g>
		<polygon fill="#37A00B" points="75.957,84.68 104.779,68.041 104.779,83.803 75.957,100.441 		"/>
		<polyline fill="#34990A" points="75.957,100.441 75.957,84.68 104.779,68.041 		"/>
		<polygon fill="#276605" points="77.465,85.58 103.273,70.684 103.273,82.928 77.465,97.82 		"/>
		<polyline fill="#2B7A05" points="77.465,97.82 77.465,85.58 103.273,70.684 		"/>
		<polygon fill="#56DD1D" points="74.441,83.803 103.264,67.164 104.779,68.041 75.957,84.68 		"/>
		<polygon fill="#3EB512" points="74.441,83.803 75.957,84.68 75.957,100.441 74.441,99.567 		"/>
	</g>
</g>
</svg>
